<svg width="167" height="63" viewBox="0 0 167 63" fill="none" xmlns="http://www.w3.org/2000/svg">
<path d="M34.3813 34.4155C33.3348 34.4473 34.5874 34.9716 35.9511 35.1623C36.3316 34.8604 36.6805 34.5585 36.9817 34.2884C36.1255 34.495 35.2534 34.495 34.3813 34.4155ZM40.0262 33.0173C40.6446 32.1434 41.1044 31.2218 41.2788 30.2367C41.1361 30.9358 40.7555 31.5396 40.4067 32.1593C38.4405 33.3827 40.2323 31.4284 40.4067 30.6816C38.282 33.3351 40.1054 32.2546 40.0262 33.0014M42.1033 27.5673C42.2302 25.6607 41.7228 26.2644 41.5484 26.9953C41.7545 27.1224 41.8972 28.3459 42.1033 27.5673ZM30.4172 1.73178C30.9722 1.82712 31.6382 1.90656 31.543 2.03367C32.1456 1.90656 32.2883 1.77945 30.4172 1.73178ZM31.543 2.04956L31.1466 2.12901L31.5272 2.09723L31.5589 2.04956M45.2587 26.9159C45.338 28.616 44.7672 29.4422 44.2598 30.8881L43.356 31.333C42.6107 32.7789 43.4353 32.2546 42.912 33.4145C41.7704 34.4473 39.3919 36.64 38.6467 36.8465C38.0917 36.8465 39.0272 36.1951 39.1382 35.9409C37.5843 37.0213 37.8855 37.5457 35.523 38.1971L35.4437 38.0541C29.6085 40.8029 21.4742 35.353 21.5852 27.901C21.5377 28.3777 21.4108 28.2506 21.284 28.4571C20.9827 24.6279 23.0599 20.7827 26.5483 19.2097C29.9732 17.5096 33.9532 18.2087 36.4109 20.4808C35.0631 18.733 32.3993 16.8581 29.228 17.0329C26.136 17.0806 23.2184 19.0508 22.2671 21.2117C20.6656 22.2127 20.4911 25.0887 19.7935 25.613C18.8738 32.4612 21.5377 35.4483 26.0884 38.9121C26.8178 39.3888 26.2946 39.4682 26.3897 39.8337C24.8992 39.1346 23.488 38.0541 22.378 36.7512C22.9806 37.6251 23.6307 38.499 24.4711 39.1822C23.044 38.7056 21.1571 35.7343 20.6021 35.6072C23.044 40.0084 30.5599 43.3293 34.4764 41.6768C32.653 41.7562 30.3538 41.7086 28.3083 40.9459C27.4521 40.501 26.2946 39.5953 26.4848 39.4206C31.8443 41.4226 37.3623 40.9459 42.0082 37.212C43.1816 36.2904 44.4818 34.7333 44.8465 34.7174C44.2915 35.5754 44.9416 35.1146 44.5294 35.8614C45.7027 33.9547 44.0378 35.0829 45.7503 32.5883L46.4004 33.4622C46.1467 31.8892 48.3507 29.9666 48.1287 27.4879C48.6203 26.7411 48.6837 28.3141 48.1605 30.0619C48.9057 28.1076 48.3666 27.8057 48.541 26.185C48.7471 26.7411 49.0167 27.3131 49.1594 27.8533C48.6837 25.9784 49.651 24.6755 49.8888 23.5951C49.6351 23.4998 49.1435 24.4213 49.0326 22.1969C49.0643 21.2276 49.3021 21.7043 49.4131 21.4501C49.207 21.3547 48.7471 20.5921 48.4459 19.1779C48.6679 18.8602 49.0167 20.0518 49.318 20.0836C49.1118 18.9555 48.7947 18.1134 48.7947 17.2395C47.9226 15.4122 48.4934 17.4937 47.764 16.4609C46.8444 13.5532 48.541 15.7936 48.6361 14.4907C50.0315 16.5086 50.8402 19.6864 51.2049 20.9893C50.9353 19.3845 50.4755 17.8433 49.9047 16.3656C50.3328 16.5404 49.2387 13.0924 50.4596 15.3646C49.1436 10.4866 44.7989 5.9106 40.8031 3.78147C41.2947 4.22636 41.8972 4.78248 41.6752 4.87781C39.6773 3.70202 40.0262 3.60669 39.7566 3.09824C38.1393 2.44679 38.0283 3.14591 36.9659 3.09824C33.9215 1.47756 33.3189 1.65234 30.5282 0.61955L30.6551 1.22333C28.6413 0.555994 28.3083 1.47756 26.1201 1.22333C25.9933 1.128 26.8178 0.841996 27.5155 0.746662C25.5652 1.00089 25.6445 0.365326 23.7417 0.826107C24.2174 0.508327 24.7089 0.269991 25.2163 -0.00012207C23.6148 0.0952121 21.395 0.921442 22.0926 0.174657C19.4922 1.35045 14.878 2.97113 12.2776 5.40215L12.1983 4.84603C10.9932 6.27604 7.02911 9.12018 6.71198 10.9792L6.39486 11.0586C5.77646 12.1073 5.36419 13.2831 4.90436 14.3794C4.11154 15.7618 3.73099 14.9038 3.82613 15.1262C2.22464 18.3517 1.44768 21.0846 0.75 23.3091C1.22569 24.04 0.75 27.6786 0.956132 30.618C0.163315 45.0771 11.0566 59.1071 23.0123 62.3325C24.7565 62.9522 27.3569 62.9363 29.5768 62.9999C26.9605 62.2531 26.6275 62.6026 24.0905 61.7288C22.2671 60.8549 21.8389 59.8856 20.5387 58.7575L21.062 59.6632C18.5091 58.7575 19.5873 58.5351 17.5102 57.8836L18.0651 57.1527C17.2406 57.0733 15.8611 55.7545 15.4964 55.0236L14.5926 55.0554C13.5144 53.7048 12.9277 52.7514 12.9752 52.0047L12.5788 52.4496C12.2617 51.8776 8.58303 47.4286 10.4858 48.4455C10.137 48.1277 9.66126 47.9212 9.16972 46.9996L9.55027 46.5547C8.6306 45.3789 7.88535 43.8536 7.93292 43.361C8.42447 44.0125 8.75745 44.1396 9.10629 44.2667C6.79127 38.5149 6.66441 43.9489 4.92022 38.4195L5.30077 38.3878C5.03121 37.9588 4.85679 37.4821 4.6348 37.0372L4.77751 35.4324C3.11259 33.5098 4.30182 27.2496 4.55552 23.8016C4.72994 22.4034 5.95088 20.9257 6.87055 18.5742L6.29972 18.4788C7.37795 16.5721 12.4837 10.868 14.8304 11.1699C15.9721 9.72396 14.6084 11.1699 14.3865 10.7885C16.9076 8.18273 17.6846 8.9454 19.3812 8.48462C21.2047 7.40417 17.8114 8.91362 18.6835 8.05562C21.8548 7.26116 20.9351 6.21249 25.0419 5.79937C25.47 6.0536 24.043 6.18071 23.6624 6.49849C26.2787 5.19559 32.0028 5.49748 35.6974 7.22939C39.9944 9.2314 44.8148 15.1898 45.005 20.7827L45.227 20.8304C45.1319 23.0549 45.5759 25.6289 44.7831 27.9805L45.3063 26.9" fill="#5A606E"/>
<path d="M22.9487 35.8613L22.806 36.5922C23.5037 37.5455 24.0586 38.5465 24.9307 39.2615C24.2806 38.0381 23.8049 37.5296 22.9646 35.8613M24.5819 35.7818C24.2014 35.3846 24.0111 34.8761 23.7574 34.3995C23.9794 35.2575 24.4551 35.9725 24.899 36.7193L24.5819 35.7659M53.4087 29.4898L53.266 29.887C52.9965 31.889 52.3622 33.891 51.4425 35.7341C52.4732 33.7798 53.1392 31.6507 53.4087 29.4739M30.6232 1.22318C31.3208 0.968952 32.3674 1.08017 33.1126 0.905396C32.1454 0.984841 31.1623 1.03251 30.195 1.15962L30.6232 1.23907M5.72871 14.4746C5.90313 16 4.58706 16.572 6.02998 15.571C6.77523 13.8708 5.71286 15.1261 5.72871 14.4746ZM4.0638 21.4976C4.38093 20.4966 4.46021 19.8769 4.58706 19.289C3.66739 20.433 4.15894 20.6872 4.0638 21.4976Z" fill="#5A606E"/>
<path d="M62.5737 36.5287C62.5737 49.0492 69.2175 49.0492 70.2006 49.0492C72.9596 49.0492 74.7355 47.5557 75.4808 44.9181L75.5759 48.8745C76.4322 48.8427 77.2726 48.7314 78.6362 48.7314C79.1119 48.7314 79.5242 48.7314 79.8571 48.7632C80.1901 48.7632 80.5707 48.795 80.9829 48.8586C80.2694 47.4285 79.762 44.2507 79.762 37.2913C79.762 30.332 79.762 19.1143 80.3487 15.6346C78.7472 16.3814 77.3836 16.8898 74.355 17.1282C75.5442 18.4311 75.5442 19.0666 75.5442 24.9456C74.688 24.6755 73.6415 24.3577 71.8338 24.3577C63.874 24.4212 62.5737 31.3489 62.5737 36.4969M75.4491 31.2694C75.4491 31.2694 75.4174 38.4671 75.3064 40.342C75.2112 41.8356 75.0685 45.077 71.8973 45.077C68.726 45.077 67.8063 41.2954 67.5368 39.6588C67.2355 37.8475 67.2355 36.3221 67.2355 35.6707C67.2355 33.5257 67.3782 27.5832 72.3729 27.5832C73.8634 27.5832 74.7197 28.028 75.4015 28.3617L75.4332 31.2694H75.4491ZM98.5993 34.6855C98.5993 29.5057 97.5845 24.3895 91.0042 24.3895C81.9502 24.3895 81.9502 34.4154 81.9502 36.5763C81.9502 45.5854 86.0094 49.1605 92.7801 49.1605C95.8086 49.1605 97.2674 48.7156 98.0602 48.4772C98.0285 46.8724 98.2346 45.8555 98.5042 44.4891C97.5845 45.077 96.3636 45.8238 93.6997 45.8238C86.7864 45.8238 86.6912 39.5158 86.6912 37.3231H98.5042L98.5993 34.7014M86.6437 34.2565C86.6754 30.5703 87.4206 27.2654 90.5919 27.2654C94.0644 27.2654 94.3023 31.0787 94.2388 34.2565H86.6437ZM100.296 41.4543C100.296 44.7274 100.296 46.6023 99.7569 48.0323C101.564 48.7473 103.848 49.1605 106.528 49.1605C108.272 49.1605 113.266 49.1605 115.994 43.5993C117.294 41.0094 117.738 37.5615 117.738 34.9398C117.738 33.335 117.564 29.8235 116.279 27.599C115.058 25.5176 113.044 24.453 110.904 24.453C106.654 24.453 105.386 27.9963 104.736 29.8394C104.736 27.5832 104.767 19.6704 105.148 15.6187C102.246 16.9534 100.486 17.1917 98.5835 17.3665C100.328 18.0815 100.328 21.021 100.328 30.5703V41.4543M113.06 36.6081C113.06 40.7393 112.315 46.3004 107.178 46.3004C106.464 46.3004 105.576 46.1574 105.005 46.0303C104.91 44.4255 104.91 41.6608 104.91 38.483C104.91 34.6697 105.322 32.6518 105.624 31.6984C106.543 28.5524 108.652 28.4888 109.033 28.4888C112.442 28.4888 113.092 33.1284 113.092 36.6081H113.06ZM126.3 48.8903C125.412 48.7473 124.81 48.652 123.51 48.652C122.083 48.652 121.131 48.7473 120.101 48.8903C120.545 48.0323 120.719 47.6351 120.846 44.7592C121.02 40.8028 121.084 30.2207 120.751 28.0122C120.513 26.312 120.132 26.0737 119.53 25.6288C123.177 25.2951 124.191 25.0091 125.856 24.1988C125.523 26.1372 125.444 27.1383 125.444 30.0936C125.349 45.4106 125.301 47.0472 126.3 48.8903ZM128.314 41.7562C128.314 44.5526 129.17 47.3491 131.644 48.5408C132.77 49.0174 133.864 49.0175 134.229 49.0175C138.319 49.0175 139.683 45.9826 140.524 44.1395C140.492 46.078 140.524 47.2855 140.666 48.8427C141.443 48.8109 142.268 48.6997 143.6 48.6997C144.345 48.6997 145.058 48.795 145.82 48.8427C145.344 48.0959 145.074 47.651 144.932 45.9032C144.836 44.2349 144.836 42.5188 144.836 40.1673L144.868 31.0946C144.868 27.7103 143.98 24.3736 137.305 24.3736C132.912 24.3736 130.328 25.7082 129.059 26.3915C129.598 27.3766 130.042 28.2028 130.423 30.1095C132.167 28.6159 134.403 27.7897 136.718 27.7897C140.397 27.7897 140.397 30.2525 140.397 33.6845C139.54 33.6528 138.827 33.5415 137.638 33.5415C132.025 33.6051 128.314 35.7978 128.314 41.7244M140.508 36.2586C140.413 39.055 140.365 40.9935 139.62 42.5665C138.7 44.5844 137.13 45.1564 135.973 45.1564C133.325 45.1564 132.738 42.932 132.738 40.7552C132.738 36.5922 136.448 36.2586 138.145 36.2586H140.492H140.508ZM166.068 44.4414C166.1 45.935 166.1 47.5398 166.75 48.8427C165.767 48.7473 165.18 48.6043 163.372 48.6043C162.31 48.6043 161.739 48.6997 160.883 48.8427C161.057 48.2548 161.153 48.0641 161.216 47.2697C161.359 46.2528 161.454 42.8366 161.454 41.6449V36.8306C161.454 34.7491 161.454 31.7143 161.311 30.6497C161.216 29.903 161.01 27.8533 158.409 27.8533C155.809 27.8533 155.032 29.7282 154.731 31.2376C154.398 32.8106 154.398 34.479 154.398 41.057C154.43 46.7612 154.43 47.2697 154.873 48.8427C154.128 48.7473 153.209 48.6679 151.845 48.6679C150.783 48.6679 150.069 48.6997 149.197 48.8427C149.498 48.1277 149.673 47.7781 149.784 45.2994C149.879 42.8366 150.053 30.8404 149.641 27.9963C149.435 26.2485 148.959 25.8512 148.483 25.4064C152.099 25.2316 153.209 24.6596 154.334 24.0717V28.7748C154.873 27.4084 155.968 24.3418 160.423 24.3418C165.973 24.3418 166.005 28.4094 166.036 31.0628V44.4414" fill="#5A606E"/>
<path d="M126.649 17.9067L122.971 21.593L119.292 17.9067L122.971 14.2205L126.649 17.9067Z" fill="#5A606E"/>
</svg>
