<svg width="22" height="19" viewBox="0 0 22 19" fill="none" xmlns="http://www.w3.org/2000/svg">
<path fill-rule="evenodd" clip-rule="evenodd" d="M13.084 3.31211C11.1498 4.11596 7.283 5.78166 1.48535 8.30756C0.543935 8.68214 0.050024 9.04843 0.00527372 9.40643C-0.0709675 10.013 0.68813 10.2517 1.71904 10.5749C1.85992 10.6197 2.00578 10.6644 2.15494 10.7141C3.17094 11.044 4.53665 11.4301 5.24603 11.4451C5.89077 11.4583 6.61008 11.1931 7.40399 10.6495C12.8204 6.99158 15.6165 5.14355 15.7922 5.10378C15.9165 5.0756 16.0889 5.03914 16.2049 5.14355C16.3209 5.24631 16.3093 5.44189 16.2977 5.49493C16.2215 5.81481 13.248 8.58104 11.7066 10.013C11.226 10.4589 10.8862 10.7755 10.8166 10.8484C10.6608 11.0092 10.5017 11.1633 10.3492 11.3108C9.40449 12.2191 8.69843 12.9019 10.389 14.0157C11.2011 14.5511 11.8508 14.9936 12.4989 15.4345C13.2066 15.9168 13.9127 16.3974 14.8276 16.9974C15.0596 17.1499 15.2817 17.3073 15.4988 17.4615C16.3226 18.0499 17.0634 18.5769 17.9783 18.4941C18.5087 18.4443 19.0589 17.9454 19.3374 16.4554C19.9954 12.9318 21.2915 5.30101 21.5915 2.15523C21.6097 1.89404 21.5986 1.63163 21.5583 1.37293C21.5342 1.16398 21.4325 0.97172 21.2733 0.834268C21.0362 0.64035 20.6683 0.598915 20.5026 0.60223C19.7551 0.615489 18.6081 1.01493 13.084 3.31211Z" fill="#2E3192"/>
</svg>
