<svg width="24" height="18" viewBox="0 0 24 18" fill="none" xmlns="http://www.w3.org/2000/svg">
<path d="M23.4991 3.22973C23.3625 2.7209 23.0946 2.25688 22.7223 1.88411C22.35 1.51134 21.8863 1.24289 21.3777 1.10562C19.5054 0.602051 12 0.602051 12 0.602051C12 0.602051 4.49464 0.602051 2.62232 1.10294C2.11345 1.23976 1.64953 1.50807 1.27716 1.88091C0.904787 2.25375 0.637069 2.718 0.500893 3.22705C-1.02179e-07 5.10205 0 9.01276 0 9.01276C0 9.01276 -1.02179e-07 12.9235 0.500893 14.7958C0.776786 15.8297 1.59107 16.644 2.62232 16.9199C4.49464 17.4235 12 17.4235 12 17.4235C12 17.4235 19.5054 17.4235 21.3777 16.9199C22.4116 16.644 23.2232 15.8297 23.4991 14.7958C24 12.9235 24 9.01276 24 9.01276C24 9.01276 24 5.10205 23.4991 3.22973ZM9.61607 12.6021V5.42348L15.8304 8.98598L9.61607 12.6021Z" fill="#2E3192"/>
</svg>
