<svg width="126" height="58" viewBox="0 0 126 58" fill="none" xmlns="http://www.w3.org/2000/svg">
<path d="M37.6357 20.8436C37.1687 19.8468 36.4322 19.013 35.4981 18.433C34.3844 17.7261 33.0012 17.563 32.0312 17.563C31.7079 17.563 31.3845 17.563 31.0612 17.6174H31.0432C31.0432 17.4905 31.0971 17.3093 31.1151 17.1643C31.169 16.9105 31.2229 16.6386 31.2408 16.3486C31.3666 15.098 30.9175 13.3943 30.1092 12.0349C29.9834 11.8174 29.9834 11.7449 29.9834 11.7449C30.0193 11.6905 30.0732 11.618 30.1271 11.5818L30.199 11.5093C32.139 9.42488 32.7138 7.123 31.9414 4.67613C30.4325 -0.00012207 30.0373 -0.00012207 29.7499 -0.00012207C29.678 -0.00012207 29.6242 -0.00012207 29.5523 0.0361279C29.4984 0.0542529 29.4445 0.108628 29.3906 0.144878C29.3367 0.199253 29.3008 0.271753 29.2829 0.344253C29.2649 0.416753 29.2649 0.489253 29.2829 0.579878C29.4266 2.1205 29.0853 4.33175 28.8517 5.1655C28.5643 6.21675 27.5943 7.79363 24.4867 9.298C24.2711 9.38863 24.0376 9.47925 23.822 9.55175C22.8161 9.89613 21.1096 10.458 20.1755 11.763C19.4749 12.5968 19.2953 13.4486 18.9899 14.953C18.7205 16.2943 18.487 17.9436 18.936 19.9011C18.972 20.1005 19.0259 20.2636 19.0618 20.4086C19.0798 20.5174 19.1157 20.608 19.1336 20.6805H19.1696H19.1336C19.1696 20.7893 19.1336 20.8255 19.0977 20.8618C18.954 20.9161 18.7923 20.9705 18.6307 21.0068C18.1636 21.0793 17.7146 21.1699 17.2655 21.2424C15.8643 21.478 11.643 22.2211 9.70297 25.3386C8.49943 27.2599 8.33776 29.7793 9.2 32.8243C10.0982 35.833 11.8765 37.9174 13.098 38.3343H13.116C13.116 38.3343 13.2956 38.4067 13.3675 38.443C13.3675 38.5336 13.3675 38.6243 13.3495 38.7511C13.3495 38.8055 13.3495 38.8599 13.3315 38.9143C13.2058 39.893 12.7387 40.9624 12.2717 40.9805C12.0202 40.9261 11.0502 40.3643 10.3496 39.9111C10.1341 39.7661 9.91852 39.6211 9.72093 39.4943C7.7809 38.2074 6.72107 37.4824 5.08642 37.3011C5.03253 37.3011 4.97864 37.3011 4.92476 37.3011C3.18232 37.3193 0.0746917 40.2555 0.00283892 46.0918C-0.0330875 49.0099 0.272287 51.6924 0.900999 54.0486C1.35008 55.7343 1.83509 56.6949 1.97879 56.9486L2.53565 57.9999L2.78713 56.8399C4.13437 50.6955 5.78699 49.2093 8.55332 47.433C10.5832 49.3543 13.2417 50.3511 16.2595 50.3511C18.8103 50.3511 21.4868 49.608 23.7681 48.2486C26.0315 46.9074 27.756 45.113 28.8338 43.0468C29.0134 43.1555 29.229 43.3186 29.3727 43.4093C29.8756 43.7718 29.9834 43.8443 30.163 43.8443C30.3606 43.8443 32.2288 43.2099 34.1329 40.8536C35.2466 39.4943 36.1628 37.7905 36.8454 35.833C37.7076 33.4043 38.2285 30.5224 38.4082 27.278C38.6058 24.5593 38.3363 22.4024 37.5998 20.8436H37.6357ZM30.4864 5.20175C30.6481 5.85425 30.666 6.52488 30.5403 7.1955C30.3606 8.48238 29.8217 9.62425 28.9056 10.6755C29.696 8.9355 30.2169 7.08675 30.4864 5.20175ZM29.1571 13.1768C29.4445 13.6118 29.6601 14.083 29.7858 14.5724C29.9475 15.2249 29.9116 15.8955 29.714 16.5299C29.3906 17.3274 28.9415 17.7261 28.4027 17.7261H28.3308C28.1332 17.6899 27.9536 17.6355 27.7919 17.5268C27.0913 17.1099 26.7141 16.0224 26.9836 15.2249C26.9836 15.2068 27.0015 15.1705 27.0195 15.1524C27.0554 15.0436 27.1991 14.808 27.5404 14.4636C28.0434 14.0105 28.7799 13.4486 29.1571 13.1949V13.1768ZM21.0557 12.9593C21.1994 12.5605 22.2413 11.9624 22.9239 11.5636C23.0137 11.5093 23.0855 11.4549 23.1754 11.4186C23.4807 11.2555 23.7861 11.1105 24.0915 10.9836C25.2232 10.4943 26.9656 9.75113 28.4027 8.3555C27.9895 9.84175 26.9836 12.3249 25.313 13.8293C24.9537 14.1555 24.1993 14.4636 23.337 14.808C22.4029 15.1705 21.2892 15.6236 20.2114 16.2943C20.3013 15.4424 20.5527 13.9561 21.0198 12.9593H21.0557ZM20.3372 17.7805C20.894 17.3093 21.9179 16.693 25.2411 15.5693C25.2591 15.678 25.295 15.8049 25.313 15.9499C25.3309 16.0586 25.3489 16.1674 25.3848 16.2943C25.6004 17.3818 25.8519 18.5961 28.0973 19.2849C27.8817 19.7561 27.4506 20.5355 27.3069 20.6805L27.253 20.7168L27.2171 20.7711C26.786 21.478 24.4148 23.0186 23.355 23.0186C23.3011 23.0186 23.2652 23.0186 23.2113 23.0186C22.5826 22.8918 21.1096 21.5868 20.6785 20.608C19.8522 18.7049 20.0138 18.0161 20.3013 17.7805H20.3372ZM12.0202 35.2349C10.7987 33.4043 9.86463 30.1961 10.4754 27.6043C10.7628 26.1905 11.7328 25.3568 12.146 25.0668L12.1998 25.0305C12.7926 24.5049 14.0141 23.9611 15.6308 23.4718C15.8643 23.4174 15.9901 23.3811 15.9901 23.3811C16.2955 23.3268 16.6188 23.2361 16.9242 23.1636C17.517 23.0005 18.1277 22.8918 18.7385 22.8011C18.8822 22.8011 19.0438 22.7649 19.1875 22.7286C19.3851 22.6924 19.5827 22.6561 19.7983 22.6561C19.96 22.6561 20.1216 22.6924 20.2653 22.783C20.8581 23.508 22.3311 24.9218 23.3011 25.0124H23.355C24.4508 24.958 26.1752 23.8705 28.4565 21.8043C28.8517 21.4599 29.211 21.1518 29.5703 20.8799L29.6062 20.8436C30.2349 20.3724 30.9175 19.9736 31.654 19.6836C31.4205 20.4811 31.2229 21.8405 31.9953 23.7436C32.3905 24.7405 33.1809 26.9518 33.8096 29.1449C34.9233 32.8968 34.7616 33.5674 34.7437 33.6217C34.7077 33.7486 34.6538 33.8755 34.6 33.9843C34.5101 33.9843 34.4383 33.9299 34.3485 33.8936C33.7916 33.6399 33.1629 33.1686 32.4264 32.6249C31.0612 31.628 29.3906 30.3774 26.9117 29.3986C25.0974 28.6918 23.3011 28.3293 21.5587 28.3293C20.8401 28.3293 20.1216 28.4018 19.4031 28.5286C15.523 29.308 13.4573 31.0299 12.3615 31.9543C12.3615 31.9543 12.2358 32.0993 12.2178 32.1899C12.1999 32.2805 12.1999 32.3711 12.2178 32.4618C12.2537 32.5524 12.3076 32.6249 12.3795 32.6793C12.4513 32.7336 12.5412 32.7518 12.631 32.7518C12.7387 32.7518 12.8286 32.7155 13.1519 32.6249C14.3195 32.2805 15.5051 32.0268 16.7086 31.8818C17.1397 31.8274 17.5708 31.8093 18.0199 31.8093C19.9061 31.8093 21.6305 32.3893 23.4628 33.6399C23.8759 34.0024 24.1454 34.2199 24.2891 34.383L24.1274 34.4193L23.0137 34.7274C20.2653 35.5068 16.0979 36.703 14.1399 36.703C13.9962 36.703 13.8345 36.703 13.6908 36.6849C13.1878 36.6124 12.5591 36.0686 11.9843 35.2168L12.0202 35.2349ZM3.90085 49.318C3.12844 50.333 2.55361 51.493 2.21231 52.7436C1.83509 50.9493 1.40397 48.013 1.65545 45.7111C2.17639 40.9624 4.49364 39.3674 4.8529 39.2949H4.87087C4.87087 39.2949 4.90679 39.2949 4.96068 39.3493C5.14031 39.5486 5.55347 40.4186 5.24809 43.9711C5.17624 44.7143 5.35587 45.3305 5.76903 45.8199C6.05644 46.1461 6.39774 46.3999 6.81089 46.563C5.69717 47.3061 4.7092 48.2486 3.88289 49.3361L3.90085 49.318ZM7.87072 44.6599C7.74498 44.7143 7.61923 44.7505 7.49349 44.7505C7.4396 44.7505 7.40368 44.7505 7.34979 44.7324C7.31386 44.7324 7.25997 44.6961 7.24201 44.6599C7.17015 44.5874 6.99052 44.3155 7.04441 43.518C7.08034 43.1193 7.13423 42.7386 7.18812 42.358C7.2959 41.6511 7.36775 40.9261 7.38571 40.2011C8.75092 41.1074 10.2419 42.0499 11.2298 42.4849C10.6011 43.0468 9.27185 44.0799 7.87072 44.6599ZM25.6004 44.533C23.4089 46.8349 20.445 48.2486 17.2834 48.4843C16.9062 48.5205 16.529 48.5205 16.1697 48.5205C12.0202 48.5205 9.90056 46.7443 8.93055 45.7474C13.6369 43.6993 14.589 40.7811 15.0021 39.4943C15.038 39.3674 15.074 39.2586 15.1099 39.168C15.2895 39.0774 15.8643 38.8236 17.6247 38.153C19.0079 37.6455 20.6605 37.0836 22.1155 36.5943C23.337 36.1774 24.3789 35.8149 24.9537 35.6155H25.0076C25.1154 35.5611 25.1872 35.5611 25.2411 35.543L25.2771 35.5793C25.816 36.2861 26.6961 36.703 26.6961 36.7211C27.3608 37.0111 28.0614 37.1924 28.7978 37.2467C28.7978 39.7843 27.6302 42.4124 25.6184 44.5149L25.6004 44.533ZM29.2469 35.8511C27.5045 35.8511 26.8937 35.2893 26.3369 34.6005C23.5167 31.2111 20.3911 30.6493 19.1696 30.5586C18.7744 30.5405 18.3972 30.5224 18.0379 30.5224C17.7325 30.5224 17.4271 30.5224 17.1397 30.5405C18.5409 30.0511 20.0138 29.8155 21.5048 29.8155C24.6124 29.8155 27.6123 30.9211 30.4145 33.1324C31.5462 34.0205 32.3905 34.6549 33.127 35.1624C32.7677 35.2711 32.3007 35.398 31.6899 35.5611L31.4564 35.6336C30.7199 35.7605 29.9834 35.833 29.2469 35.8511ZM30.3247 42.2674C30.1451 42.1043 29.8577 41.8505 29.5703 41.5786C29.8397 40.908 30.0373 40.2011 30.163 39.4943C30.3068 38.733 30.3786 37.7543 30.4145 37.2286C31.2408 37.1018 32.0672 36.9205 32.8575 36.703C33.8275 36.4311 34.582 36.1049 35.1029 35.7424C33.4324 39.9293 31.0253 41.778 30.2888 42.2674H30.3247ZM36.0729 32.6793C35.8215 30.613 34.9951 28.0574 34.6718 27.0605C34.6359 26.9518 34.6 26.8611 34.582 26.8068C34.564 26.7343 34.4922 26.5168 34.3305 26.0818C33.9353 24.958 33.091 22.6199 32.9473 21.9311C32.7318 20.9161 33.2168 19.5205 33.5222 19.3936C33.612 19.3574 33.7198 19.3393 33.8275 19.3393C34.3844 19.3393 35.085 19.883 35.6418 20.753C36.3065 21.8043 36.7017 23.1818 36.7555 24.6318C36.8633 27.8036 36.5759 30.468 36.0729 32.6793Z" fill="#5A606E"/>
<path d="M54.4313 13.9018V47.6868C54.4313 50.478 53.7667 52.6168 52.4374 54.0849C51.1082 55.553 49.1502 56.2962 46.5814 56.2962C45.5935 56.2962 44.6055 56.1149 43.6714 55.7705L43.7253 53.0337C44.5336 53.2693 45.3779 53.3962 46.2222 53.3962C49.5094 53.3962 51.1441 51.493 51.1441 47.6687V13.9018H54.4313ZM52.7967 2.93616C53.5152 2.93616 54.0721 3.15366 54.4852 3.58866C54.8804 4.02366 55.1139 4.58553 55.096 5.18366C55.096 5.47366 55.0601 5.76366 54.9523 6.03553C54.8445 6.30741 54.6828 6.56116 54.4852 6.76053C54.0721 7.19553 53.5152 7.39491 52.7967 7.39491C52.0961 7.39491 51.5393 7.17741 51.1441 6.76053C50.7489 6.32553 50.5333 5.76366 50.5513 5.18366C50.5513 4.58553 50.7489 4.02366 51.1441 3.58866C51.5393 3.15366 52.0961 2.93616 52.7967 2.93616Z" fill="#5A606E"/>
<path d="M63.5923 5.18366C63.5923 4.58553 63.7899 4.02366 64.203 3.58866C64.6162 3.15366 65.1551 2.93616 65.8556 2.93616C66.5562 2.93616 67.1131 3.15366 67.5262 3.58866C67.7238 3.80616 67.8855 4.04178 67.9932 4.31366C68.101 4.58553 68.1549 4.87553 68.137 5.16553C68.137 5.45553 68.101 5.74553 67.9932 6.01741C67.8855 6.28928 67.7238 6.54303 67.5262 6.74241C67.1131 7.17741 66.5562 7.37678 65.8556 7.37678C65.1551 7.37678 64.5982 7.15928 64.203 6.74241C64.0054 6.52491 63.8438 6.28928 63.736 6.01741C63.6282 5.74553 63.5743 5.45553 63.5923 5.16553V5.18366ZM67.4903 44.098H64.1671V13.9018H67.4903V44.098Z" fill="#5A606E"/>
<path d="M81.6094 6.18054V13.9018H87.8067V16.6387H81.6094V36.7755C81.6094 38.443 81.9148 39.6937 82.5075 40.5274C83.1003 41.343 84.1063 41.7599 85.5074 41.7599C86.0643 41.7599 86.9624 41.6693 88.1839 41.488L88.3276 44.2068C87.4654 44.5149 86.2798 44.678 84.7889 44.678C82.5255 44.678 80.8729 44.0074 79.831 42.6843C78.7892 41.3612 78.2862 39.4037 78.2862 36.8118V16.6387H72.7715V13.9018H78.2862V6.18054H81.5914H81.6094Z" fill="#5A606E"/>
<path d="M111.446 36.431C111.446 34.7817 110.782 33.4404 109.47 32.4435C108.159 31.4467 106.165 30.6492 103.507 30.0873C100.848 29.5254 98.7823 28.8729 97.3273 28.1298C95.8722 27.3867 94.7765 26.4985 94.058 25.4292C93.3394 24.3598 92.9981 23.091 92.9981 21.5867C92.9981 19.2123 93.9861 17.2367 95.9621 15.6779C97.938 14.1192 100.453 13.3398 103.543 13.3398C106.884 13.3398 109.56 14.1735 111.572 15.841C113.584 17.5085 114.608 19.6835 114.608 22.3479H111.285C111.285 20.5898 110.548 19.1035 109.093 17.9435C107.62 16.7654 105.788 16.1854 103.543 16.1854C101.369 16.1854 99.6266 16.6748 98.2973 17.6535C96.986 18.6323 96.3213 19.901 96.3213 21.4598C96.3213 22.9642 96.8782 24.1423 97.9739 24.9579C99.0697 25.7917 101.064 26.5348 103.974 27.2417C106.884 27.9304 109.057 28.6554 110.494 29.4529C111.949 30.2323 113.009 31.1748 113.71 32.2804C114.41 33.386 114.752 34.7092 114.752 36.2679C114.752 38.8235 113.728 40.8535 111.698 42.376C109.668 43.8985 107.009 44.6598 103.722 44.6598C100.237 44.6598 97.4171 43.8079 95.2435 42.1042C93.07 40.4004 91.9922 38.2435 91.9922 35.6517H95.3154C95.4411 37.6092 96.2674 39.1317 97.7584 40.2192C99.2673 41.3067 101.243 41.8504 103.722 41.8504C106.021 41.8504 107.89 41.3429 109.309 40.3098C110.728 39.2948 111.446 37.9898 111.446 36.431Z" fill="#5A606E"/>
<path d="M121.452 5.18366C121.452 4.58553 121.649 4.02366 122.062 3.58866C122.476 3.15366 123.014 2.93616 123.715 2.93616C124.416 2.93616 124.972 3.15366 125.386 3.58866C125.583 3.80616 125.745 4.04178 125.853 4.31366C125.96 4.58553 126.014 4.87553 125.996 5.16553C125.996 5.45553 125.96 5.74553 125.853 6.01741C125.745 6.28928 125.583 6.54303 125.386 6.74241C124.972 7.17741 124.416 7.37678 123.715 7.37678C123.014 7.37678 122.458 7.15928 122.062 6.74241C121.865 6.52491 121.703 6.28928 121.595 6.01741C121.488 5.74553 121.434 5.45553 121.452 5.16553V5.18366ZM125.35 44.098H122.026V13.9018H125.35V44.098Z" fill="#5A606E"/>
</svg>
