<svg width="74" height="90" viewBox="0 0 74 90" fill="none" xmlns="http://www.w3.org/2000/svg">
<path d="M71.3017 71.0012C70.6665 70.2832 70.3687 68.9469 70.0378 67.5309C69.7136 66.1149 69.3497 64.5858 68.1917 63.5886C68.1917 63.5886 68.1917 63.5886 68.1851 63.5886C67.9535 63.3892 67.7219 63.2163 67.4837 63.0767C67.2454 62.9371 67.0072 62.8175 66.7624 62.731C68.3703 57.9312 67.7417 53.1512 66.1139 48.83C64.1156 43.5249 60.635 38.9046 57.9683 35.7467C54.9907 31.9707 52.0726 28.3874 52.1321 23.0956C52.2247 15.0049 53.0188 0.0203103 38.8649 0.000366211C38.2892 0.000366211 37.6871 0.0203103 37.0651 0.0734944C21.2503 1.34991 25.4456 18.1362 25.214 23.7604C24.9228 27.8688 24.0957 31.1131 21.2834 35.1285C17.9815 39.0774 13.3231 45.4728 11.1196 52.1275C10.0808 55.2653 9.58449 58.4697 10.0411 61.5012C9.89549 61.6275 9.76315 61.7671 9.63081 61.9067C8.6581 62.9504 7.94346 64.2069 7.14279 65.0578C6.39507 65.8091 5.33634 66.0883 4.16512 66.5138C2.99391 66.9326 1.7102 67.5575 0.936004 69.06C0.936004 69.06 0.936004 69.06 0.936004 69.0666C0.572066 69.7513 0.452959 70.4959 0.452959 71.2471C0.452959 71.9452 0.552215 72.6499 0.658087 73.328C0.87645 74.7374 1.0882 76.0736 0.803663 76.9777C-0.122724 79.5173 -0.241831 81.279 0.413257 82.5554C1.06834 83.8318 2.41161 84.3969 3.92691 84.716C6.96413 85.3542 11.0733 85.1947 14.3091 86.9165L14.587 86.3913L14.3091 86.9165C17.7764 88.7381 21.29 89.3829 24.0957 88.7381C26.1271 88.2727 27.7814 87.0561 28.6284 85.1814C30.8252 85.1681 33.2272 84.2374 37.0849 84.0246C39.6987 83.8119 42.9675 84.962 46.726 84.7493C46.8252 85.1614 46.9642 85.5537 47.1627 85.926C47.1627 85.926 47.1627 85.9326 47.1627 85.9393C48.6185 88.8644 51.3248 90.2073 54.2099 89.9746C57.0949 89.7486 60.1718 88.0334 62.6532 85.0684L62.1966 84.6828L62.6532 85.0617C65.0221 82.1765 68.946 80.9865 71.5531 79.4043C72.8567 78.6132 73.9088 77.6292 73.9948 76.1933C74.0742 74.7573 73.2405 73.1485 71.3083 71.0012H71.3017ZM36.3571 18.2425C36.3438 17.1855 36.5159 16.2814 36.9195 15.3639C37.3232 14.4465 37.826 13.7817 38.5275 13.2432C39.2355 12.7047 39.9237 12.4587 40.7442 12.4521H40.7839C41.5845 12.4521 42.2727 12.6914 42.9741 13.2033C43.6888 13.7285 44.2049 14.38 44.6218 15.2908C45.032 16.1816 45.2239 17.0525 45.2438 18.083C45.2438 18.1096 45.2438 18.1362 45.2504 18.1627C45.257 19.2198 45.0783 20.1239 44.6747 21.0413C44.4497 21.5665 44.185 22.0053 43.8674 22.3909C43.7615 22.3377 43.6491 22.2912 43.5366 22.2446C43.1395 22.0718 42.7888 21.9322 42.4712 21.8125C42.1536 21.6928 41.9088 21.6131 41.6573 21.5266C41.8426 21.3006 42.2065 21.0413 42.3389 20.7089C42.544 20.2103 42.6433 19.725 42.6631 19.1467C42.6631 19.1267 42.6697 19.1001 42.6697 19.0735C42.683 18.5151 42.6102 18.0431 42.4447 17.5578C42.2727 17.0459 42.061 16.6802 41.75 16.3744C41.439 16.0686 41.128 15.929 40.7508 15.9157C40.7309 15.9157 40.7177 15.9157 40.6978 15.9157C40.3471 15.9157 40.0428 16.0354 39.7251 16.3013C39.3943 16.5805 39.1495 16.9329 38.9443 17.4315C38.7392 17.9234 38.6399 18.4154 38.6201 19.0004C38.6201 19.0203 38.6201 19.0403 38.6201 19.0669C38.6135 19.386 38.6333 19.6785 38.6796 19.9644C37.9584 19.6054 37.0452 19.3394 36.41 19.1932C36.3769 18.914 36.3504 18.6348 36.3438 18.3356V18.2558L36.3571 18.2425ZM27.027 15.9689C27.2785 15.1578 27.6093 14.5728 28.099 14.0875C28.582 13.6022 29.0717 13.3629 29.6606 13.3296C29.7069 13.3296 29.7532 13.3296 29.793 13.3296C30.3289 13.3296 30.8054 13.5091 31.295 13.9014C31.831 14.3335 32.2346 14.8786 32.5721 15.6498C32.9096 16.421 33.0882 17.1988 33.1412 18.1096C33.1676 18.5018 33.161 18.8608 33.1346 19.2131C33.0287 19.2464 32.9294 19.273 32.8236 19.3129C32.2479 19.5123 31.7913 19.7317 31.3546 20.0242C31.4009 19.7184 31.4009 19.4059 31.3678 19.0602C31.3678 19.0403 31.3678 19.027 31.3678 19.007C31.3215 18.5483 31.2222 18.1627 31.0634 17.7705C30.8914 17.365 30.6995 17.0791 30.4414 16.8597C30.2098 16.6603 29.9915 16.5672 29.7533 16.5739C29.7268 16.5739 29.7003 16.5739 29.6805 16.5739C29.4092 16.5938 29.1908 16.7268 28.9724 16.986C28.7607 17.2453 28.6217 17.5644 28.5225 17.9899C28.4232 18.4154 28.3968 18.8342 28.4365 19.3129C28.4365 19.3328 28.4365 19.3461 28.4365 19.366C28.4828 19.8314 28.5754 20.217 28.7408 20.6092C28.9063 21.0081 29.1048 21.3006 29.3628 21.52C29.4092 21.5599 29.4489 21.5931 29.4886 21.6197C29.2239 21.8258 29.0518 21.9721 28.8335 22.1316C28.6945 22.2313 28.5291 22.3576 28.3372 22.4972C27.9203 22.105 27.5895 21.6064 27.3049 20.9549C26.9675 20.1837 26.7888 19.4126 26.7293 18.4951C26.6763 17.5777 26.769 16.7866 27.0204 15.9755L27.027 15.9689ZM27.4373 24.013C28.271 23.3814 28.8533 22.956 29.2371 22.6701C29.6209 22.3842 29.7797 22.2779 29.9054 22.1649C30.5341 21.5665 31.5332 20.4763 33.0419 19.9577C33.5581 19.7782 34.1404 19.6585 34.7888 19.6585C36.0262 19.6585 37.515 20.0641 39.3215 21.2275C40.4265 21.9521 41.2934 22.0119 43.2785 22.8695C44.2313 23.2618 44.7938 23.7737 45.0717 24.3188C45.343 24.8573 45.3496 25.4423 45.1247 26.0606C44.6681 27.2905 43.1991 28.5935 41.1478 29.2383C40.1486 29.5641 39.2752 30.2887 38.2429 30.8804C37.2173 31.4721 36.0461 31.9507 34.4646 31.8577C33.7896 31.8178 33.2537 31.6848 32.7905 31.4854C32.3273 31.2859 31.9435 31.0267 31.5796 30.7275C30.8517 30.1425 30.2164 29.3979 29.2901 28.8528C27.7946 28.0018 26.9741 27.0179 26.716 26.167C26.458 25.316 26.7028 24.5847 27.4439 24.0263L27.4373 24.013ZM28.0262 82.6817C27.8145 85.4938 26.2396 87.0229 23.8178 87.5747C21.4025 88.1331 18.1205 87.5747 14.8517 85.8595C11.2321 83.9316 6.92443 84.1244 4.15851 83.546C2.77554 83.2535 1.87562 82.8213 1.45875 82.0103C1.04849 81.1992 1.03526 79.7832 1.91533 77.3766V77.3633L1.92194 77.35C2.35867 76.0005 2.03443 74.5246 1.82269 73.1418C1.61094 71.759 1.51169 70.4959 1.9815 69.6184C2.58365 68.4417 3.47033 68.0229 4.56215 67.6306C5.66058 67.2318 6.95752 66.9259 7.98316 65.8888H7.98978V65.8755C8.93602 64.8717 9.65066 63.6086 10.4844 62.7111C11.1858 61.9532 11.8938 61.4546 12.9526 61.448C12.9658 61.448 12.979 61.448 12.9856 61.448C13.1709 61.448 13.3694 61.4679 13.5812 61.5012C14.9906 61.7139 16.2214 62.7044 17.4058 64.3199L20.8269 70.5823C21.7334 72.4903 23.6589 74.5911 25.2867 76.7318C26.9145 78.8724 28.1718 81.0197 28.013 82.6684L28.0262 82.6817ZM27.7417 78.1345C27.2917 77.4231 26.7756 76.7185 26.2462 76.0204C25.9087 75.575 25.558 75.1362 25.214 74.6975C25.8955 74.6975 26.4712 74.5844 26.9344 74.3717C27.5167 74.1058 27.9203 73.6803 28.1255 73.1352C28.5291 72.0449 28.1255 70.5092 26.8285 68.7475C25.5382 66.9924 23.3479 65.0113 20.1321 63.0302C17.7698 61.5543 16.453 59.7461 15.831 57.7783C15.2156 55.8105 15.3016 53.6897 15.778 51.589C16.6912 47.5603 19.0402 43.6446 20.5423 41.1915C20.946 40.8923 20.6879 41.7433 19.027 44.8479C17.5382 47.6799 14.7524 54.2216 18.5638 59.3339C18.6631 55.6974 19.5299 51.9945 20.979 48.5242C23.0899 43.7111 27.5101 35.3678 27.8608 28.7198C28.0461 28.8528 28.6614 29.2716 28.9394 29.4311C29.7532 29.9098 30.362 30.6145 31.1494 31.246C31.9435 31.8842 32.9294 32.436 34.4183 32.5225C34.5638 32.5291 34.7028 32.5358 34.8351 32.5358C36.3703 32.5358 37.5746 32.0305 38.5672 31.4588C39.6524 30.8339 40.5192 30.1425 41.3397 29.8765C43.0734 29.3314 44.4563 28.3674 45.2438 27.2439C46.5936 32.5889 49.7301 40.3006 51.7483 44.0701C52.8203 46.0645 54.951 50.3125 55.8774 55.4249C56.4597 55.4049 57.1015 55.4913 57.7897 55.6708C60.1983 49.3951 55.745 42.6407 53.7136 40.7593C52.8931 39.9549 52.8534 39.5959 53.2636 39.6159C55.4737 41.5771 58.372 45.526 59.4241 49.9801C59.9071 52.0144 60.0064 54.1485 59.4903 56.2559C59.7417 56.3622 59.9998 56.4753 60.2578 56.6016C64.1222 58.4896 65.5515 60.1383 64.8699 62.3853C64.6449 62.3787 64.42 62.3787 64.2016 62.3853C64.1818 62.3853 64.1619 62.3853 64.1421 62.3853C64.7045 60.6037 63.4605 59.294 60.1586 57.7916C56.731 56.2758 53.9981 56.4287 53.5349 59.5001C53.5085 59.6597 53.482 59.8259 53.4621 59.9921C53.2041 60.0851 52.946 60.1981 52.6879 60.3378C51.08 61.2219 50.1999 62.8308 49.7103 64.7986C49.2206 66.7664 49.0816 69.1464 48.9493 71.8189C48.8699 73.1618 48.3141 74.9833 47.7582 76.9113C42.1404 80.9333 34.3455 82.6817 27.7284 78.1411L27.7417 78.1345ZM70.9378 78.3938C68.5821 79.8231 64.4067 81.0663 61.7401 84.3105C59.4241 87.0761 56.5986 88.5985 54.1106 88.7979C51.6226 88.9974 49.4787 87.9603 48.2148 85.4074V85.3941C47.4274 83.8917 47.7582 81.525 48.4199 79.032C49.0816 76.5323 50.0279 73.9728 50.1602 71.892C50.2926 69.2195 50.4448 66.886 50.8881 65.0844C51.3381 63.2828 52.0395 62.0662 53.2835 61.3815C53.343 61.3483 53.396 61.3217 53.4555 61.2884C53.5945 63.6019 54.7326 65.9553 56.7508 66.4672C58.9543 67.0523 62.1305 65.1509 63.4737 63.6019C63.7384 63.5886 64.0031 63.5753 64.2545 63.5687C65.4324 63.5421 66.4183 63.6086 67.4241 64.4928C68.1983 65.1509 68.5689 66.4007 68.8865 67.7968C69.2041 69.1929 69.4622 70.7153 70.4216 71.7989C72.2612 73.8532 72.8567 75.2426 72.8038 76.1268C72.7508 77.011 72.1156 77.6691 70.9378 78.3871V78.3938Z" fill="#5A606E"/>
<path d="M36.4298 21.6794C36.6084 21.7725 36.7474 21.9719 36.9459 21.9786C37.1378 21.9786 37.4355 21.9121 37.4554 21.726C37.4884 21.4733 37.1245 21.3138 36.8929 21.2274C36.5886 21.1077 36.2048 21.0479 35.9203 21.2074C35.8541 21.2407 35.7814 21.3271 35.8078 21.4002C35.874 21.6196 36.2247 21.5797 36.4232 21.6861L36.4298 21.6794Z" fill="#5A606E"/>
<path d="M28.1125 26.1404C28.4632 26.4728 28.933 26.9248 29.5087 27.3902C30.66 28.3076 32.2614 29.2516 34.2928 29.2516C36.3242 29.2516 38.23 28.2145 39.8644 27.3569C40.718 26.9115 41.7767 26.1271 42.4516 25.5354C43.1266 24.9437 43.4839 24.4252 43.0008 24.372C42.5178 24.3188 42.5377 24.8307 41.9554 25.2628C41.1944 25.8213 40.2614 26.5658 39.5269 26.978C38.23 27.7093 36.1125 28.7796 34.2928 28.7796C32.4731 28.7796 31.0174 27.9353 29.9256 27.0711C29.383 26.639 28.933 26.2002 28.5691 25.8611C28.3044 25.6085 28.2382 25.0567 27.8147 25.0036C27.5633 24.9836 27.4905 25.6617 28.0993 26.147L28.1125 26.1404Z" fill="#5A606E"/>
<path d="M32.6117 21.9788C32.8102 21.9788 32.9557 21.7727 33.1278 21.6796C33.3329 21.5732 33.677 21.6131 33.7497 21.3937C33.7696 21.3206 33.7034 21.2408 33.6373 21.2009C33.3527 21.0414 32.969 21.1012 32.6646 21.2209C32.433 21.314 32.0691 21.4735 32.1022 21.7195C32.1287 21.9123 32.4198 21.9788 32.6117 21.9721V21.9788Z" fill="#5A606E"/>
</svg>
