<svg width="234" height="40" viewBox="0 0 234 40" fill="none" xmlns="http://www.w3.org/2000/svg">
<path d="M225.542 4.49023H229.932V10.6445H234V14.703H229.932V25.6969H233.773V29.6791C233.035 29.8315 232.259 29.9077 231.503 29.9077C227.51 29.9077 225.523 27.7928 225.523 23.5438V4.49023H225.542Z" fill="#5A606E"/>
<path d="M217.236 13.3501V10.6255H221.625V29.3551H217.236V26.6495C216.611 28.4596 214.379 29.7743 211.332 29.7743C210.102 29.7934 208.872 29.5647 207.737 29.0884C206.602 28.6121 205.58 27.888 204.729 26.9925C202.969 25.1062 202.023 22.5911 202.099 19.9998C202.061 18.7232 202.269 17.4466 202.723 16.2653C203.177 15.0649 203.858 13.9789 204.729 13.0643C205.561 12.1497 206.583 11.4257 207.718 10.9494C208.854 10.454 210.083 10.2253 211.313 10.2444C214.36 10.2444 216.592 11.5591 217.217 13.3692L217.236 13.3501ZM215.93 24.0964C216.479 23.5628 216.895 22.9341 217.179 22.2291C217.463 21.5241 217.595 20.762 217.576 20.0189C217.576 19.2758 217.444 18.5136 217.179 17.8277C216.895 17.1227 216.479 16.494 215.968 15.9605C215.438 15.427 214.814 15.0078 214.133 14.722C213.432 14.4362 212.695 14.2837 211.957 14.3028C211.219 14.3028 210.5 14.4171 209.837 14.7029C209.156 14.9887 208.551 15.4079 208.04 15.9414C207.529 16.494 207.132 17.1227 206.867 17.8277C206.602 18.5327 206.469 19.2758 206.507 20.0189C206.488 20.762 206.602 21.5241 206.867 22.21C207.132 22.915 207.529 23.5438 208.04 24.0964C208.551 24.6299 209.156 25.049 209.837 25.3348C210.519 25.6206 211.238 25.754 211.957 25.735C212.695 25.735 213.432 25.6206 214.114 25.3348C214.795 25.049 215.419 24.6299 215.93 24.1154V24.0964Z" fill="#5A606E"/>
<path d="M54.6072 29.3552V10.6446H58.9591V13.4264C59.47 12.4166 60.2457 11.5782 61.2296 11.0066C62.2136 10.4541 63.3299 10.1873 64.4463 10.2635C64.8815 10.2635 65.3356 10.3016 65.7518 10.3778V14.6839C65.1464 14.5696 64.5409 14.4934 63.9165 14.4934C63.2542 14.4363 62.5731 14.5315 61.9487 14.7792C61.3243 15.0079 60.7566 15.3889 60.2836 15.8653C59.8105 16.3416 59.451 16.9132 59.2051 17.542C58.978 18.1708 58.8834 18.8567 58.9212 19.5236V29.3552H54.5693H54.6072Z" fill="#5A606E"/>
<path d="M66.8676 19.9999C66.8486 18.6852 67.0946 17.3705 67.5866 16.1511C68.0974 14.9317 68.8354 13.8456 69.7814 12.931C71.7114 11.1019 74.2658 10.073 76.9148 10.073C79.5638 10.073 82.1181 11.1019 84.0481 12.931C84.9942 13.8456 85.7511 14.9317 86.243 16.1511C86.7539 17.3705 86.9999 18.6662 86.962 19.9999C86.9809 21.3146 86.735 22.6293 86.243 23.8488C85.7321 25.0682 84.9942 26.1542 84.0481 27.0688C82.1181 28.898 79.5638 29.9268 76.9148 29.9268C74.2658 29.9268 71.7114 28.898 69.7814 27.0688C68.8354 26.1542 68.0785 25.0682 67.5866 23.8488C67.0757 22.6293 66.8297 21.3337 66.8676 19.9999ZM81.0018 24.1917C81.5316 23.6392 81.9668 22.9723 82.2506 22.2673C82.5344 21.5433 82.6669 20.7811 82.6479 19.9999C82.6669 19.2378 82.5344 18.4566 82.2506 17.7516C81.9668 17.0276 81.5505 16.3797 81.0018 15.8462C80.472 15.3127 79.8287 14.8745 79.1286 14.5887C78.4285 14.3029 77.6716 14.1505 76.9148 14.1505C76.1579 14.1505 75.4011 14.3029 74.701 14.5887C74.0009 14.8745 73.3576 15.3127 72.8278 15.8462C72.298 16.3988 71.8817 17.0466 71.5979 17.7707C71.3141 18.4947 71.1816 19.2568 71.2005 20.019C71.1627 21.5814 71.7493 23.0866 72.8089 24.2108C73.9063 25.2778 75.3632 25.8875 76.8959 25.8875C78.4285 25.8875 79.8854 25.2968 80.9829 24.2108L81.0018 24.1917Z" fill="#5A606E"/>
<path d="M105.298 11.9402V16.3987C104.541 15.6556 103.67 15.0649 102.686 14.6648C101.721 14.2647 100.662 14.0742 99.6212 14.0932C98.8265 14.0742 98.0508 14.2075 97.3128 14.4933C96.5749 14.7791 95.9126 15.2174 95.345 15.7699C94.7963 16.3225 94.3611 16.9703 94.0584 17.6943C93.7745 18.4184 93.6232 19.1996 93.661 19.9808C93.6421 20.762 93.7745 21.5432 94.0584 22.2672C94.3422 22.9912 94.7774 23.6391 95.345 24.1916C95.9126 24.7442 96.5749 25.1824 97.3128 25.4682C98.0508 25.754 98.8265 25.8874 99.6212 25.8683C100.681 25.8874 101.721 25.6969 102.686 25.2967C103.67 24.8966 104.541 24.3059 105.298 23.5629V28.0214C103.595 29.3361 101.494 30.003 99.3753 29.9077C98.0508 29.9458 96.7263 29.7172 95.4964 29.2218C94.2665 28.7454 93.1312 28.0023 92.1851 27.0687C91.2391 26.1541 90.4822 25.049 89.9903 23.8296C89.4983 22.6102 89.2523 21.2955 89.2902 19.9617C89.2523 18.647 89.4794 17.3323 89.9903 16.0938C90.4822 14.8744 91.2391 13.7693 92.1851 12.8547C93.1312 11.9211 94.2476 11.1971 95.4964 10.7017C96.7263 10.2253 98.0508 9.97764 99.3753 10.0157C101.513 9.93953 103.614 10.6255 105.298 11.9402Z" fill="#5A606E"/>
<path d="M108.552 29.3742V4.49023H112.904V18.628L119.148 10.6445H124.124L117.123 19.5997L124.711 29.3742H119.583L112.904 20.7239V29.3742H108.552Z" fill="#5A606E"/>
<path d="M124.805 19.9998C124.748 18.6851 124.956 17.3895 125.411 16.1701C125.865 14.9506 126.584 13.8265 127.473 12.8928C128.381 11.9973 129.46 11.2733 130.633 10.816C131.806 10.3587 133.093 10.1301 134.36 10.1872C135.571 10.1301 136.782 10.3587 137.899 10.816C139.015 11.2923 140.018 11.9973 140.85 12.8928C141.683 13.7884 142.345 14.8172 142.761 15.9605C143.197 17.1037 143.405 18.3231 143.367 19.5425C143.367 20.0951 143.329 20.6667 143.291 21.143H129.157C129.176 21.848 129.346 22.5149 129.649 23.1437C129.952 23.7724 130.368 24.325 130.898 24.7823C131.428 25.2396 132.033 25.5825 132.695 25.7921C133.357 26.0017 134.058 26.0779 134.739 26.0017C137.142 26.1732 139.526 25.411 141.361 23.8487V28.0023C139.337 29.3361 136.953 30.003 134.55 29.8886C133.263 29.9458 131.957 29.7362 130.746 29.2789C129.535 28.8216 128.419 28.1357 127.473 27.2402C126.565 26.3066 125.865 25.1824 125.411 23.963C124.956 22.7435 124.748 21.4288 124.805 20.1332V19.9427V19.9998ZM138.901 17.9992C138.901 17.4657 138.788 16.9322 138.561 16.4368C138.334 15.9414 138.012 15.5222 137.596 15.1793C136.707 14.379 135.552 13.9598 134.379 13.9979C133.112 13.9789 131.863 14.3981 130.86 15.1793C130.406 15.5032 130.027 15.9224 129.744 16.4177C129.479 16.9131 129.308 17.4466 129.27 18.0183H138.901V17.9992Z" fill="#5A606E"/>
<path d="M146.697 4.49023H151.087V10.6445H155.155V14.703H151.087V25.6969H154.928V29.6791C154.19 29.8315 153.414 29.9077 152.657 29.9077C148.665 29.9077 146.697 27.7928 146.697 23.5438V4.49023Z" fill="#5A606E"/>
<path d="M159.488 24.4583C158.958 24.4583 158.447 24.6107 158.012 24.8965C157.577 25.1823 157.236 25.6015 157.028 26.0969C156.82 26.5923 156.763 27.1258 156.877 27.6403C156.971 28.1547 157.236 28.6311 157.596 29.0121C157.974 29.3932 158.428 29.6409 158.958 29.7362C159.469 29.8314 159.999 29.7933 160.491 29.5837C160.983 29.3741 161.38 29.0312 161.683 28.5929C161.967 28.1547 162.137 27.6403 162.137 27.1068C162.137 26.7638 162.061 26.4018 161.929 26.0969C161.796 25.773 161.607 25.4872 161.361 25.2395C161.115 24.9918 160.831 24.8013 160.51 24.6679C160.188 24.5345 159.847 24.4583 159.507 24.4583H159.488Z" fill="#5A606E"/>
<path d="M179.375 11.9403V16.3988C178.637 15.6557 177.748 15.0651 176.764 14.665C175.799 14.2648 174.739 14.0743 173.698 14.0934C172.904 14.0743 172.128 14.2077 171.39 14.4935C170.652 14.7793 169.99 15.2175 169.422 15.7701C168.873 16.3226 168.438 16.9704 168.136 17.6945C167.852 18.4185 167.7 19.1997 167.738 19.9809C167.719 20.7621 167.852 21.5433 168.136 22.2673C168.419 22.9914 168.855 23.6392 169.422 24.1918C169.99 24.7443 170.652 25.1825 171.39 25.4684C172.128 25.7542 172.904 25.8875 173.698 25.8685C174.758 25.8875 175.799 25.697 176.764 25.2969C177.748 24.8967 178.618 24.3061 179.375 23.563V28.0215C177.672 29.3362 175.572 30.0031 173.452 29.9078C172.128 29.9459 170.803 29.7173 169.574 29.2219C168.344 28.7456 167.208 28.0025 166.262 27.0689C165.316 26.1543 164.559 25.0492 164.067 23.8297C163.575 22.6103 163.329 21.2956 163.367 19.9619C163.329 18.6472 163.557 17.3325 164.067 16.094C164.559 14.8746 165.316 13.7694 166.262 12.8549C167.208 11.9212 168.325 11.1972 169.574 10.7018C170.803 10.2255 172.128 9.97778 173.452 10.0159C175.591 9.93967 177.691 10.6065 179.394 11.9212L179.375 11.9403Z" fill="#5A606E"/>
<path d="M182.629 29.3742V4.49023H186.981V13.2358C187.511 12.2832 188.286 11.4829 189.251 10.9685C190.197 10.435 191.295 10.2063 192.373 10.2635C196.631 10.2635 199.109 13.1215 199.109 17.7706V29.3552H194.757V18.3994C194.757 15.8271 193.395 14.2457 191.068 14.2457C190.519 14.2457 189.951 14.3409 189.441 14.5696C188.93 14.7792 188.457 15.1221 188.078 15.5223C187.7 15.9224 187.397 16.4178 187.208 16.9513C187.019 17.4848 186.943 18.0373 186.981 18.609V29.3933H182.629V29.3742Z" fill="#5A606E"/>
<path d="M42.0432 13.2359C40.7565 11.2543 39.0536 9.55851 37.0669 8.26286C32.5636 5.42388 27.3413 3.95675 22.0244 4.05202C20.1701 4.05202 18.3158 4.2235 16.4805 4.54741C15.3452 3.4423 14.0585 2.47057 12.6773 1.68937C10.8419 0.736689 8.83626 0.165081 6.79276 0.0317061C4.74925 -0.101669 2.66791 0.184135 0.737932 0.889118C0.56764 0.946279 0.416269 1.0606 0.28382 1.19398C0.170292 1.32735 0.0756853 1.49883 0.0378427 1.67032C0 1.8418 0 2.03233 0.0378427 2.22287C0.0756853 2.39435 0.170292 2.56583 0.302741 2.69921C1.91105 4.39498 4.59788 7.74841 3.93564 10.797C1.47586 13.2168 0.056764 16.5131 0 19.9618C0.056764 23.4486 1.45694 26.7639 3.93564 29.2028C4.59788 32.2513 1.92998 35.6048 0.321663 37.3005C0.189213 37.4339 0.113528 37.6054 0.056764 37.7769C0 37.9484 0 38.1389 0.056764 38.3294C0.0946067 38.5009 0.189213 38.6724 0.302741 38.8058C0.416269 38.9392 0.586561 39.0535 0.756853 39.1106C2.68683 39.8156 4.74925 40.1014 6.81168 39.968C8.8741 39.8347 10.8798 39.2631 12.6962 38.3104C14.0775 37.5292 15.3641 36.5575 16.4994 35.4523C18.3348 35.7763 20.1891 35.9477 22.0434 35.9477C27.3602 36.043 32.5825 34.5759 37.0858 31.7369C39.0726 30.4412 40.7565 28.7455 42.0432 26.7639C43.3488 24.7633 44.0489 22.4006 44.0489 19.9999C44.0489 17.5991 43.3488 15.2555 42.0432 13.2359ZM21.7974 32.0227C19.4701 32.0227 17.1616 31.7178 14.91 31.1272L13.3585 32.6515C12.507 33.4898 11.542 34.2139 10.5013 34.8045C9.23361 35.4523 7.87127 35.8334 6.4711 35.9668C6.54678 35.8334 6.62247 35.681 6.69815 35.5476C7.41716 34.4044 7.90912 33.1088 8.11725 31.775C8.32539 30.4222 8.26862 29.0503 7.94696 27.7356C6.75492 26.8973 5.77101 25.7731 5.07092 24.4965C4.37083 23.2199 3.97348 21.7719 3.89779 20.3047C3.89779 13.8075 11.9204 8.54867 21.7974 8.54867C31.6743 8.54867 39.7159 13.8075 39.7159 20.3047C39.7159 26.802 31.6932 32.0608 21.7974 32.0608V32.0227Z" fill="#5A606E"/>
<path d="M13.2258 17.561C12.696 17.561 12.1851 17.7134 11.7499 17.9992C11.3147 18.285 10.9741 18.7042 10.766 19.1996C10.5578 19.695 10.5011 20.2285 10.6146 20.7429C10.7092 21.2574 10.9741 21.7337 11.3336 22.1148C11.7121 22.4959 12.1662 22.7436 12.696 22.8388C13.2068 22.9341 13.7366 22.896 14.2286 22.6864C14.7205 22.4768 15.1179 22.1338 15.4206 21.6956C15.7045 21.2574 15.8747 20.7429 15.8747 20.2094C15.8747 19.8665 15.7991 19.5044 15.6666 19.1996C15.5342 18.8757 15.3449 18.5899 15.099 18.3422C14.853 18.0945 14.5692 17.9039 14.2475 17.7706C13.9258 17.6372 13.5853 17.561 13.2447 17.561H13.2258Z" fill="#5A606E"/>
<path d="M21.7218 17.561C21.1921 17.561 20.6812 17.7134 20.246 17.9992C19.8108 18.285 19.4702 18.7042 19.2621 19.1996C19.0539 19.695 18.9972 20.2285 19.1107 20.7429C19.2053 21.2574 19.4702 21.7337 19.8297 22.1148C20.2081 22.4959 20.6623 22.7436 21.1921 22.8388C21.7029 22.9341 22.2327 22.896 22.7247 22.6864C23.2166 22.4768 23.6329 22.1338 23.9167 21.6956C24.2005 21.2574 24.3708 20.7429 24.3708 20.2094C24.3708 19.8665 24.2952 19.5044 24.1627 19.1996C24.0303 18.8757 23.841 18.5899 23.5951 18.3422C23.3491 18.0945 23.0653 17.9039 22.7436 17.7706C22.4219 17.6372 22.0814 17.561 21.7408 17.561H21.7218Z" fill="#5A606E"/>
<path d="M30.2175 17.5609C29.6877 17.5609 29.1768 17.7134 28.7416 17.9992C28.3064 18.285 27.9658 18.7041 27.7577 19.1995C27.5495 19.6949 27.4928 20.2284 27.6063 20.7429C27.7009 21.2573 27.9658 21.7337 28.3253 22.1147C28.7038 22.4958 29.1579 22.7435 29.6877 22.8388C30.1985 22.934 30.7283 22.8959 31.2203 22.6863C31.7122 22.4768 32.1285 22.1338 32.4123 21.6956C32.6961 21.2573 32.8664 20.7429 32.8664 20.2094C32.8664 19.5044 32.5826 18.8185 32.0907 18.3231C31.5987 17.8277 30.9175 17.5419 30.2175 17.5419V17.5609Z" fill="#5A606E"/>
</svg>
