<svg width="24" height="16" viewBox="0 0 24 16" fill="none" xmlns="http://www.w3.org/2000/svg">
<path d="M0 0.00203953H4.10746C4.24238 7.33735 7.27044 10.4444 9.66897 11.0851V0.00195312H13.5366V6.32825C15.9051 6.05601 18.3935 3.17312 19.233 0.00195312H23.1006C22.7841 1.64658 22.1535 3.20377 21.2482 4.57616C20.3428 5.94855 19.1822 7.10661 17.8388 7.97793C19.3388 8.77348 20.6635 9.90011 21.7256 11.2833C22.7877 12.6665 23.5629 14.2749 24 16.002H19.7427C19.3504 14.5018 18.5521 13.1588 17.448 12.1416C16.3439 11.1243 14.9831 10.4782 13.5366 10.2842V16.002H13.0718C4.87199 16.002 0.194905 9.99595 0 0.00195312V0.00203953Z" fill="#2E3192"/>
</svg>
