<svg width="203" height="63" viewBox="0 0 203 63" fill="none" xmlns="http://www.w3.org/2000/svg">
<path d="M18.2408 26.3723H21.6748L28.2198 49.787H25.3682L23.5215 43.0594H16.1633L14.4444 49.787H11.5928L18.2372 26.3723H18.2408ZM19.9276 28.2608H19.8637L16.7847 40.7147H22.9426L19.9276 28.2608Z" fill="#5A606E"/>
<path d="M32.8221 42.3716C32.8221 45.8174 33.7951 47.9981 37.2292 47.9981C39.8536 47.9981 41.6718 46.8614 41.6718 44.0963C41.6718 41.0746 40.2442 40.3227 37.8791 39.414L34.4414 38.1134C32.3036 37.301 30.6806 35.6761 30.6806 31.9666C30.6806 28.2572 33.2411 25.9161 37.0339 25.9161C41.0823 25.9161 43.483 28.2251 43.6783 32.519H41.0823C41.0823 29.9498 39.8216 28.2608 37.2256 28.2608C34.342 28.2608 33.369 30.0139 33.369 31.9666C33.369 34.1118 33.9194 35.0561 35.4109 35.6084L39.1398 37.0052C42.8366 38.4056 44.3566 40.6149 44.3566 43.7043C44.3566 48.1264 41.6328 50.3393 37.1617 50.3393C32.6907 50.3393 30.2261 47.4138 30.2261 42.3752H32.815V42.3681L32.8221 42.3716Z" fill="#5A606E"/>
<path d="M54.4068 49.787H51.8143V28.7134H45.7559V26.3723H60.4368V28.7134H54.4103V49.787H54.4068Z" fill="#5A606E"/>
<path d="M65.9132 49.787H63.3208V26.3723H70.4162C74.5002 26.3723 77.1921 28.357 77.1921 32.7506C77.1921 35.4196 75.6686 37.7607 72.9767 38.1491V38.2133C75.4413 38.5055 76.9648 40.6221 76.9648 43.5155C76.9648 48.3937 77.3874 48.5577 77.7425 49.2703V49.7906H75.1181C74.5996 48.2655 74.3724 46.8971 74.3724 44.36C74.3724 41.2706 73.0122 39.4854 70.125 39.4854H65.9132V49.7906V49.787ZM65.9132 37.1371H70.4162C72.2309 37.1371 74.5002 36.2926 74.5002 32.8433C74.5002 29.394 72.5861 28.7134 70.3204 28.7134H65.9132V37.1336V37.1371Z" fill="#5A606E"/>
<path d="M87.1034 26.3723H90.5375L97.086 49.787H94.2344L92.3877 43.0594H85.0295L83.3107 49.787H80.459L87.1034 26.3723ZM88.7867 28.2608H88.7228L85.6438 40.7147H91.8017L88.7867 28.2608Z" fill="#5A606E"/>
<path d="M111.87 47.4459H121.394V49.787H109.274V26.3723H111.866V47.4459H111.87Z" fill="#5A606E"/>
<path d="M127.137 49.787H124.544V26.3723H127.137V49.787Z" fill="#5A606E"/>
<path d="M136.09 26.3723L142.702 45.5253C142.993 46.3377 143.221 47.0219 143.512 48.1016H143.608C143.576 47.2535 143.512 46.3413 143.512 45.4967V26.3758H146.104V49.7906H141.857L135.344 31.0616C134.957 29.9891 134.694 28.9486 134.47 27.5517H134.406C134.438 28.7205 134.47 29.9249 134.47 31.1258V49.7906H131.878V26.3723H136.093H136.09Z" fill="#5A606E"/>
<path d="M153.459 26.3723V43.2198C153.459 45.0406 153.718 48.0018 157.87 48.0018C162.021 48.0018 162.273 45.0406 162.273 43.2198V26.3723H164.866V44.1605C164.866 48.3225 162.11 50.3393 157.87 50.3393C153.629 50.3393 150.87 48.326 150.87 44.1605V26.3723H153.459Z" fill="#5A606E"/>
<path d="M171.205 26.3723L176.102 35.5087L180.996 26.3723H183.879L177.626 37.7571L184.011 49.787H181.063L176.106 39.9985L171.049 49.787H168.165L174.614 37.7571L168.328 26.3723H171.208H171.205Z" fill="#5A606E"/>
<path d="M136.736 60.3773H11.7632C6.84472 60.3773 2.86019 56.3756 2.86019 51.444V23.8494C2.86019 18.9177 6.84472 14.9161 11.7632 14.9161H92.0788C92.7998 14.9161 93.3857 14.3281 93.3857 13.6048C93.3857 12.8814 92.7998 12.2935 92.0788 12.2935H11.7632C5.40645 12.297 0.25 17.471 0.25 23.8494V51.444C0.25 57.8259 5.40645 62.9999 11.7668 62.9999H136.736V60.3808V60.3773Z" fill="#5A606E"/>
<path d="M190.737 12.297H110.46C109.739 12.297 109.153 12.8849 109.153 13.6083C109.153 14.3317 109.739 14.9196 110.46 14.9196H190.737C195.655 14.9196 199.64 18.9177 199.64 23.8529V51.4439C199.64 56.3792 195.652 60.3808 190.733 60.3808H136.74V62.9963H190.737C197.086 62.9963 202.25 57.8188 202.25 51.4404V23.8529C202.25 17.4817 197.083 12.297 190.737 12.297Z" fill="#5A606E"/>
<path d="M111.355 8.07443L104.501 6.89139C103.912 5.64066 101.909 1.38602 101.909 1.38602L101.256 -0.00012207L98.0025 6.88783L91.145 8.07086L96.0422 13.3981L94.9449 20.9524L101.252 17.4781L107.559 20.9524L106.455 13.3981C107.328 12.4467 110.304 9.21113 110.45 9.05435L111.352 8.07086L111.355 8.07443ZM105.581 13.0596L106.511 19.3667L101.252 16.4697L95.989 19.3667L96.9229 13.056L92.8248 8.6018L98.553 7.60763L101.248 1.89558L103.94 7.60763L109.672 8.6018L105.577 13.056L105.581 13.0596Z" fill="#5A606E"/>
<path d="M97.3882 14.2212L99.2917 16.8153L100.108 16.3663L96.9478 9.80265L101.106 15.814L101.248 15.7356L102.701 16.5374L99.5047 9.47126L104.949 17.7739L105.688 18.1801L105.57 17.3783L102.058 9.13986L105.077 13.9753L104.91 12.8493L105.833 11.848L104.611 8.8156L106.192 11.4596L108.429 9.0294L103.514 8.18132L101.248 3.37793L98.9827 8.18132L94.0713 9.0294L97.5906 12.8493L97.3882 14.2212Z" fill="#5A606E"/>
<path d="M97.1894 15.5931L96.813 18.1801L98.1412 17.4496L97.1894 15.5931Z" fill="#5A606E"/>
</svg>
