<svg width="114" height="82" viewBox="0 0 114 82" fill="none" xmlns="http://www.w3.org/2000/svg">
<path d="M46.0316 66.8123H11.3869V60.4329C10.8632 60.6255 10.3105 60.7831 9.74023 60.8998V68.4699H45.9908C45.9676 67.9154 45.9908 67.3609 46.0374 66.8181L46.0316 66.8123Z" fill="#5A606E"/>
<path d="M11.3874 38.4866V1.65164H76.3417V22.3425C76.8596 22.0565 77.4123 21.8172 77.9884 21.6246V-0.00012207H9.73486V38.4749C9.86869 38.4749 10.0025 38.4691 10.1364 38.4691C10.5728 38.4691 10.9859 38.4749 11.3816 38.4866H11.3874Z" fill="#5A606E"/>
<path d="M7.34903 46.5588L0.564415 45.8409C0.820438 44.6502 1.18702 43.7163 1.66997 43.0335C2.15292 42.3506 2.84535 41.7611 3.75307 41.2591C4.40476 40.8972 5.30085 40.6171 6.44131 40.4186C7.58178 40.2202 8.81535 40.121 10.1362 40.121C12.2658 40.121 13.9707 40.2377 15.2625 40.477C16.5542 40.7163 17.6307 41.2124 18.486 41.9712C19.0912 42.4965 19.5683 43.2377 19.9174 44.2008C20.2666 45.1638 20.4411 46.0802 20.4411 46.9557V55.162C20.4411 56.0375 20.4935 56.7204 20.6041 57.2165C20.7146 57.7126 20.9532 58.3429 21.3256 59.1134H14.6632C14.3955 58.6348 14.2209 58.2729 14.1395 58.0219C14.058 57.771 13.9765 57.3799 13.8951 56.8429C12.9641 57.7418 12.0389 58.3838 11.1254 58.769C9.86853 59.2826 8.40804 59.5395 6.7497 59.5395C4.53859 59.5395 2.86281 59.0258 1.71652 57.9986C0.570234 56.9713 0 55.7048 0 54.2048C0 52.7923 0.413128 51.6308 1.23939 50.7261C2.06564 49.8156 3.59014 49.1386 5.80707 48.695C8.47204 48.158 10.1944 47.7845 10.9857 47.5685C11.7771 47.3526 12.615 47.0724 13.4994 46.7222C13.4994 45.8467 13.319 45.2339 12.9583 44.8837C12.5975 44.5335 11.9633 44.3584 11.0556 44.3584C9.89181 44.3584 9.019 44.5451 8.43713 44.9187C7.98327 45.2105 7.61669 45.7592 7.33739 46.5646L7.34903 46.5588ZM13.5052 50.3001C12.5277 50.6503 11.5094 50.9596 10.4562 51.2281C9.01318 51.6133 8.09965 51.9927 7.71561 52.3662C7.31994 52.7514 7.1221 53.1892 7.1221 53.6795C7.1221 54.2398 7.31412 54.695 7.70397 55.0511C8.09383 55.4071 8.66406 55.5822 9.42049 55.5822C10.1769 55.5822 10.945 55.3896 11.6258 55.0044C12.3066 54.6192 12.7895 54.1522 13.0746 53.5978C13.3598 53.0433 13.4994 52.3254 13.4994 51.4382V50.3001H13.5052Z" fill="#5A606E"/>
<path d="M24.9385 33.4783H32.0548V59.1186H24.9385V33.4783Z" fill="#5A606E"/>
<path d="M45.1547 33.4783V40.5464H49.0591V45.7585H45.1547V52.3423C45.1547 53.136 45.2304 53.6555 45.3816 53.9123C45.6144 54.3092 46.0217 54.5076 46.6036 54.5076C47.1273 54.5076 47.8604 54.3559 48.803 54.0524L49.3267 58.9668C47.5695 59.352 45.9344 59.5447 44.4099 59.5447C42.641 59.5447 41.3435 59.317 40.5056 58.8618C39.6677 58.4065 39.0509 57.7178 38.6494 56.7898C38.2479 55.8617 38.0501 54.3617 38.0501 52.2897V45.7585H35.4316V40.5464H38.0501V37.1378L45.1663 33.4841L45.1547 33.4783Z" fill="#5A606E"/>
<path d="M72.2748 63.1058C71.7915 62.7206 71.3957 62.8606 71.3957 62.8606C71.3433 63.0824 71.6751 63.4852 71.9138 64.098C72.1525 64.7109 72.6416 65.0085 72.7813 64.384C72.921 63.7595 72.5775 63.3393 72.2748 63.1V63.1058Z" fill="#5A606E"/>
<path d="M67.7356 62.5099C67.7356 62.5099 67.7589 62.4923 67.7763 62.4865C68.0382 62.3406 68.3 62.2822 68.492 62.2414C68.6841 62.2005 68.7946 62.1772 68.7481 62.0955C68.7131 62.0371 68.6084 61.9729 68.4571 61.932C68.2476 61.8737 67.9625 61.862 67.6774 61.967C67.6134 61.9904 67.5552 62.0137 67.4912 62.0488C66.9617 62.3464 66.6824 62.7667 66.7755 62.9301C66.8628 63.0935 67.2177 62.7958 67.7298 62.504L67.7356 62.5099Z" fill="#5A606E"/>
<path d="M70.3822 64.1967C70.3706 64.0625 70.3298 63.9341 70.2367 63.8174C70.5102 63.7999 70.7081 63.7123 70.7488 63.5664C70.8128 63.3096 70.3764 62.9769 69.7654 62.8193C69.1836 62.6676 68.6657 62.7376 68.561 62.9652C68.561 62.9769 68.5435 62.9886 68.5435 63.0002C68.5261 63.0644 68.5435 63.1345 68.5901 63.2045C68.625 63.2571 68.6715 63.3154 68.7355 63.3679C68.7355 63.3679 68.7355 63.3679 68.7297 63.3679C68.689 63.3796 68.6541 63.3971 68.6191 63.4205C68.5551 63.4555 68.497 63.4964 68.4446 63.543C68.2991 63.543 68.0838 63.543 67.8569 63.5664C67.5078 63.6014 67.1237 63.6831 66.8735 63.8816C67.2808 63.8407 67.63 63.8524 67.8976 63.8816C68.0024 63.8932 68.1013 63.9049 68.1769 63.9166C68.1653 63.9458 68.1537 63.9691 68.142 63.9983C68.0838 64.01 68.0082 64.0275 67.9267 64.0508C67.5369 64.1501 66.9084 64.3602 66.6291 64.722C67.2227 64.5061 67.7231 64.4477 67.9849 64.4302H67.9965C67.9965 64.4419 67.9965 64.4477 67.9907 64.4594C67.9849 64.4886 67.9733 64.5236 67.9675 64.5528C67.6707 64.6695 66.8561 65.0372 66.5942 65.5333C67.1645 65.2006 67.6649 65.0606 67.9093 65.008C67.8976 65.3115 67.9675 65.5567 68.0838 65.7435C67.9209 65.7785 67.7987 65.8602 67.7522 65.9769C67.6649 66.2279 67.9442 66.5547 68.3748 66.7065C68.4039 66.7182 68.4271 66.7182 68.4562 66.724C68.7879 66.8174 69.0905 66.7824 69.2359 66.6306C69.2708 66.6014 69.3058 66.5664 69.3174 66.5256C69.3581 66.403 69.3174 66.2688 69.2127 66.1403C69.4745 66.0703 69.7305 65.9127 69.9284 65.6676C70.068 65.8252 70.423 66.2571 70.7081 66.9341C70.8012 66.333 70.2891 65.4633 70.1611 65.2649C70.1727 65.2357 70.1844 65.2007 70.196 65.1656C70.3764 65.3115 70.7837 65.6734 71.1619 66.2629C71.1503 65.6442 70.4695 64.8621 70.3299 64.7045C70.3299 64.687 70.3415 64.6695 70.3415 64.652C70.5801 64.7687 71.0106 65.0139 71.4703 65.44C71.3307 64.9205 70.6732 64.4069 70.388 64.2026L70.3822 64.1967Z" fill="#5A606E"/>
<path d="M110.276 77.5806C108.461 76.6351 106.895 77.4406 107.361 73.2032C107.693 70.1681 105.988 67.8218 103.684 66.2926C101.24 64.67 98.1732 64.314 95.485 63.2575C95.0486 63.0883 94.618 62.9015 94.1932 62.7089C92.2149 61.8159 90.1434 60.491 88.5782 58.9676C88.5665 58.956 88.5607 58.9501 88.5491 58.9384C88.0836 58.4832 87.6472 58.0046 87.2108 57.5143C86.914 52.7808 88.4793 47.8722 88.6596 43.8741C88.7236 42.45 88.6131 41.0025 88.392 39.5958C87.9381 36.7184 85.8957 33.304 87.8857 30.6483C88.1185 30.339 88.3803 30.1288 88.7236 29.802C89.7768 28.7923 90.7776 27.4965 90.9406 25.9965C90.9813 25.6463 90.9755 25.3603 90.9929 25.156C91.2781 24.835 91.4468 24.3447 91.3944 23.9245C91.3653 23.7144 91.2839 23.5218 91.1384 23.3759C90.9871 23.2299 90.7718 23.1307 90.4693 23.1074C90.4983 23.1891 90.5158 23.2766 90.5216 23.37C90.5274 23.4576 90.5216 23.551 90.5042 23.6502C90.4751 23.7961 90.4111 23.942 90.3005 24.0938C90.2656 24.1463 90.2191 24.193 90.1725 24.2455C90.1841 24.193 90.1841 24.1405 90.1841 24.0879C90.1841 24.0354 90.1783 23.9887 90.1667 23.9362C90.1376 23.7903 90.0619 23.6502 89.9688 23.5276C89.8757 23.405 89.7652 23.2941 89.6488 23.1949C89.6488 23.1949 89.6372 23.1832 89.6314 23.1832C89.1659 23.2591 88.6945 23.2883 88.1709 23.2766C87.8567 23.2766 87.525 23.2533 87.1642 23.2241C86.4369 23.1657 85.5932 23.0607 84.54 22.9323C82.7478 22.7105 80.9207 22.5762 79.146 23.0023C76.6265 23.6093 74.6365 25.3195 73.7928 27.8117C73.1819 29.6152 73.0655 31.5296 72.664 33.3798C72.4196 34.5121 71.5061 36.1406 69.5685 38.4927C67.5785 38.8779 65.2277 38.5278 64.5644 38.4227C64.3432 38.3877 64.128 38.3468 63.9127 38.3001C63.8428 38.3702 63.7847 38.446 63.7265 38.5219C63.6159 38.6795 63.5344 38.8488 63.5112 39.0297C63.4995 39.1173 63.5112 39.2106 63.5344 39.304C63.1213 38.948 63.0806 38.5628 63.1737 38.2359C63.1853 38.1892 63.2028 38.1425 63.2202 38.1017C63.197 38.0958 63.1737 38.0842 63.1446 38.0783C62.8886 37.9849 62.6907 37.9733 62.5394 38.0258C62.3882 38.0725 62.2834 38.1834 62.2136 38.3293C62.1845 38.3935 62.1612 38.4577 62.1438 38.5161C62.1263 38.5803 62.1147 38.6386 62.1089 38.7028C62.0914 38.8254 62.0972 38.9421 62.1205 39.0589C62.1321 39.1172 62.1438 39.1756 62.1612 39.2281C62.1903 39.3099 62.2252 39.3916 62.266 39.4733C62.2951 39.5316 62.33 39.5959 62.3707 39.6542C62.394 39.6892 62.4114 39.7184 62.4347 39.7534C62.714 40.1445 63.2842 40.9558 65.0299 41.6912C64.5178 41.7846 63.4763 41.6095 62.3067 40.6231C60.8811 42.5609 64.5935 44.8196 65.9085 45.8119C66.0249 47.9597 64.6516 49.6874 63.5519 50.6854C61.5735 52.4656 59.0191 53.6913 56.8313 55.1913C53.9394 57.1758 51.2919 59.3762 49.3019 62.3003C48.9528 62.814 48.656 63.3568 48.4233 63.9171C47.7134 65.5864 47.4981 67.4074 47.6843 69.1642C47.9229 71.4522 48.5513 74.067 46.1481 75.4678C45.2113 76.0164 40.0152 77.3647 38.5605 81.3044C42.1972 79.3316 44.3211 80.5573 47.0675 79.9912C49.5404 79.4775 50.9195 77.6565 50.7449 75.6137C50.902 77.8024 51.833 79.8394 53.9801 80.6741C55.1031 81.1118 56.3425 81.211 57.5354 81.0943C58.6118 80.9892 59.7057 80.5223 60.7997 80.7207C63.1097 81.1527 65.2975 81.7655 67.625 81.141C68.3582 80.9425 68.9866 80.7499 69.5859 80.5398C70.6449 80.9075 71.6923 81.211 72.7106 81.4387C74.2932 81.7947 75.841 81.9815 77.3248 81.999C79.1344 82.0165 80.8451 81.7888 82.4103 81.3102C83.161 81.0826 83.865 80.7849 84.5342 80.4523C85.4361 80.6332 86.3496 80.7441 87.269 80.8025C87.2981 80.8025 87.333 80.8025 87.3795 80.8025C87.4901 80.8025 87.6588 80.8025 87.8567 80.7908C88.2872 80.9834 88.8284 81.2052 89.4102 81.211C90.0736 81.2169 90.6322 80.9484 91.0278 80.4231C91.3886 79.9445 91.4701 79.3666 91.2548 78.8414C91.2024 78.7129 91.1326 78.5904 91.0453 78.4678C91.0337 78.1935 90.9813 77.925 90.8824 77.674C93.2797 78.0126 95.7701 77.6507 97.6321 77.1779C96.8233 79.3316 93.8092 80.0495 91.7727 79.6585C93.4484 81.246 95.9097 81.5262 98.0743 80.9951C99.2788 80.6974 100.419 80.1546 101.379 79.3608C102.165 78.7188 102.921 77.7557 104.062 78.0826C104.737 78.2752 105.039 78.8647 105.505 79.3316C106.075 79.8978 106.762 80.3122 107.524 80.569C109.648 81.2927 111.742 80.2772 114 81.2986C113.273 79.6935 112.103 78.5145 110.288 77.5748L110.276 77.5806ZM73.3332 34.3195C74.0605 32.8429 74.4271 31.1853 74.8344 29.9421C74.8751 29.8195 74.9217 29.7028 74.9624 29.5802C75.5908 29.8253 76.3822 29.3817 76.7487 28.5529C77.0688 27.8409 76.9698 27.0821 76.5509 26.6911C78.0347 24.7942 80.1818 23.5276 82.7711 23.8136C85.279 24.0879 86.4776 24.1054 89.3113 23.6677C88.4094 24.7183 86.7045 24.8409 85.5932 24.6599C85.8899 24.9109 86.0296 25.191 86.0296 25.191C86.0296 25.191 85.0811 27.4615 82.6082 26.1191C83.6614 26.4051 84.54 26.5101 85.407 25.0218C84.348 24.1113 82.9049 24.5957 82.5849 25.0568C82.166 25.6638 81.5841 25.8623 80.752 26.7378C79.9199 27.6133 79.5999 29.2825 79.5999 29.2825C79.5999 29.2825 79.2566 28.6347 79.8385 27.1522C78.826 28.016 78.1394 28.9557 77.6157 30.0938C76.9291 31.588 76.644 35.5686 78.634 39.1231C77.4819 38.1017 76.4578 36.4149 76.3181 34.016C75.0031 37.5355 78.1103 41.0433 79.5417 43.9967C80.9731 46.95 81.3688 48.5668 81.9216 49.8683C82.9049 52.1971 83.5915 53.4403 84.8891 55.0979C82.3987 53.5512 80.7346 48.4267 79.6814 46.1854C79.6057 46.0278 79.5301 45.8702 79.4603 45.7068C78.6573 43.9908 77.7612 42.1698 76.3589 40.8624C76.132 40.6523 75.905 40.4597 75.6665 40.2846C74.6482 39.5375 73.1295 38.4811 70.4122 38.5336C71.1977 37.5355 72.0356 36.9869 73.3448 34.3254L73.3332 34.3195ZM83.6963 25.372C83.7428 25.5471 83.8476 25.658 83.9872 25.7105C83.9639 25.7222 83.9523 25.7455 83.929 25.7572C83.6264 25.9323 83.3297 25.8739 83.2657 25.6288C83.2017 25.3778 83.3995 25.0335 83.7021 24.8584C83.7196 24.8467 83.737 24.8467 83.7603 24.835C83.6846 25.0101 83.6555 25.2027 83.6963 25.372ZM55.5977 69.6487C53.5845 70.4775 51.9494 71.6623 50.7158 73.495C50.902 73.2148 49.4823 69.6428 49.4183 69.0183C48.592 61.1739 55.8945 57.491 61.4106 53.9423C65.2626 51.4617 66.8627 49.0512 66.4554 46.4247C68.1778 48.1057 69.0506 50.417 68.62 53.6096C68.0789 57.6369 68.6142 59.0493 68.6142 59.0493C68.6142 59.0493 65.6059 59.7322 63.9418 64.2556C62.6267 67.0514 60.9393 67.7342 59.5952 68.207C60.5378 67.4016 61.1197 66.2751 61.271 65.4405C59.4497 67.5183 57.8147 68.744 55.6035 69.6545L55.5977 69.6487ZM73.147 80.1721C72.3265 79.997 71.4712 79.7694 70.5751 79.4775C70.4762 79.4425 70.3773 79.4133 70.2725 79.3783C70.6507 79.2266 71.0289 79.0573 71.4363 78.8705C71.989 78.6137 72.3847 77.9659 72.6582 77.2596C72.8618 76.7285 72.9957 76.1623 73.0713 75.6896C73.0946 75.5437 73.1179 75.4094 73.1295 75.2868C73.176 74.9133 73.1702 74.6623 73.1411 74.6623C73.1179 74.6623 73.0655 74.7791 72.984 74.9658C72.92 75.1176 72.8386 75.3102 72.7455 75.532C72.5069 76.0923 72.1752 76.816 71.7679 77.4055C71.477 77.8316 71.1511 78.1818 70.7904 78.3511C69.5685 78.9172 68.94 79.355 67.7239 79.7402C67.5901 79.781 67.4504 79.8219 67.2992 79.8686C65.8503 80.2597 65.059 80.2246 63.9534 79.9503C63.9301 79.9503 63.9127 79.9386 63.8894 79.9328C63.8021 79.9095 63.7148 79.8861 63.6217 79.8628C63.197 79.746 62.8595 79.676 62.5627 79.6235C62.2718 79.5768 62.0274 79.5476 61.8005 79.5242C61.4921 79.4892 61.1953 79.46 60.8287 79.3783C60.5727 79.32 60.4214 79.2266 60.3691 79.104C60.3225 78.9873 60.3458 78.818 60.4331 78.5962C60.5087 78.3919 60.6425 78.1526 60.8287 77.8666C61.4572 76.8978 62.9002 76.962 63.9476 77.3063C65.2859 77.7499 66.1238 77.4114 66.6067 76.8452C66.6533 76.7869 66.7056 76.7285 66.758 76.6701C67.3864 75.9697 67.2061 75.1468 67.0024 74.1779C66.8977 73.6701 66.7871 73.1273 66.7813 72.532C66.7813 72.3919 66.7813 72.2518 66.7929 72.1059C66.7406 72.0825 66.6125 72.2635 66.502 72.5786C66.3682 72.9464 66.2576 73.5067 66.2983 74.1837C66.2983 74.2421 66.2983 74.2946 66.3042 74.353L66.3274 74.5864C66.438 75.6546 66.4438 75.6721 65.9783 76.2032C65.9259 76.2674 65.8736 76.3258 65.8212 76.3841C65.8037 76.4016 65.7921 76.4192 65.7747 76.4367C65.6175 76.3258 65.1695 75.9522 64.7506 75.1117C64.7506 75.0767 64.7389 75.0475 64.7156 75.0184C64.704 74.995 64.6866 74.9775 64.6749 74.96C64.5935 74.7791 64.512 74.5748 64.4305 74.353C64.2967 73.9619 64.1745 73.5008 64.0814 72.9697C64.029 72.6837 63.9883 72.3802 63.9592 72.0533C63.8603 71.0028 63.8661 70.0047 63.9709 69.0358C64.1512 67.3374 64.6516 65.7148 65.5128 63.993C65.5477 63.9288 65.5826 63.8646 65.6175 63.8004C65.7572 63.5319 65.891 63.2634 66.0481 62.9949C66.4496 62.2945 66.8977 61.7926 67.3632 61.4248C67.6017 61.2381 67.8461 61.0805 68.0963 60.9638C68.3523 60.8412 68.6025 60.7536 68.8527 60.6953C69.2077 60.6077 69.5568 60.5844 69.8768 60.5902C70.6333 60.6077 71.2675 60.812 71.5934 60.9462C73.5717 61.7517 74.5027 63.3801 74.0372 65.207C73.9208 65.6564 73.787 66.0766 73.659 66.4852C73.1237 68.1837 72.9782 69.4444 74.6075 70.53C75.3115 71.0028 76.033 71.1487 77.3481 71.6039C78.0754 75.1759 75.8003 78.9114 73.1586 80.1838L73.147 80.1721ZM89.9921 79.6293C89.9339 79.7052 89.8699 79.7577 89.8059 79.7986C89.4335 80.0262 88.8924 79.8219 88.2349 79.5242C88.1243 79.4717 88.0138 79.425 87.9148 79.3842C87.6239 79.2616 87.3795 79.1799 87.1584 79.1157C86.722 78.9873 86.3729 78.9522 85.9598 78.9464C86.2274 78.7596 86.3438 78.532 86.3845 78.3336C86.4253 78.141 86.3903 77.9834 86.3438 77.9367C86.3322 77.925 86.2682 77.9717 86.1518 78.0534C85.8434 78.2694 85.151 78.7596 84.0861 79.2557C83.6323 79.4659 83.1028 79.6818 82.5093 79.8744C81.6132 80.1663 79.9141 80.4056 78.1452 80.534C81.4386 79.5651 83.4344 76.4308 84.2665 75.4911C85.6746 75.637 86.5591 76.7927 86.9315 77.0612C87.3621 77.3705 87.8043 77.5573 88.6771 77.7032C89.5906 77.8608 89.7245 78.0592 89.7477 78.4736C89.4219 78.3102 88.648 78.176 88.2872 78.3861C89.1193 78.4386 89.9281 79.0223 90.0503 79.3316C90.0794 79.3958 90.0969 79.4951 89.9921 79.6351V79.6293ZM93.6288 68.1662C91.8657 68.0611 90.7486 67.53 89.8757 66.8354C89.16 66.2693 88.6015 65.5864 87.9963 64.9443C87.4784 64.3899 86.6638 64.0163 86.2332 64.8451C85.855 65.5747 86.2041 66.4035 86.274 67.1623C86.3962 68.4813 85.7677 69.7479 85.0637 70.816C84.8542 71.137 84.5225 71.6856 84.0919 72.351C84.4294 71.1954 84.7204 69.7771 84.8309 68.1662C84.1327 70.7284 82.7071 73.6584 81.6074 75.7246C80.0596 77.5164 78.1336 79.1273 76.0389 79.3608C77.8252 77.4055 78.4594 75.2752 78.7329 73.6117C78.5467 71.995 78.314 68.1545 79.8443 65.6739C79.5417 66.5961 79.4486 67.7634 79.4603 68.9366C79.5825 68.5164 79.7163 68.1078 79.9025 67.7109C80.4902 66.4502 81.5375 65.6389 82.486 64.6642C83.4403 63.6778 82.7653 62.5747 81.7005 62.0552C80.0887 61.2673 76.5451 57.6602 75.5268 51.1699C75.0962 52.9909 75.2417 55.2497 75.4919 56.6096C73.7579 53.0551 74.7355 48.8294 74.1827 45.0122C73.8743 42.8702 72.7978 41.2418 70.6391 40.6815C70.1503 40.5531 69.6441 40.483 69.1437 40.4363C69.1146 40.4363 69.0913 40.4305 69.068 40.4247C68.7771 40.518 68.4513 40.6873 68.2127 41.02C68.3465 41.2301 68.5036 41.3935 68.6724 41.5161C68.8469 41.6445 69.0389 41.7379 69.2251 41.7963C69.3706 41.7029 69.4753 41.557 69.5103 41.3527C69.5452 41.1309 69.4812 40.8916 69.359 40.6698C69.3823 40.6815 69.4055 40.6815 69.4346 40.6931C69.8477 40.8799 70.1445 41.3001 70.0921 41.6328C70.0747 41.7671 69.9874 41.8546 69.8768 41.913C70.3714 41.9363 70.7555 41.8254 70.7555 41.8254C70.7555 41.8254 69.6383 42.485 68.9284 42.129C68.7946 42.0647 68.6607 41.9889 68.5327 41.9188C68.108 41.6795 67.7472 41.4402 67.5959 41.341C67.5494 41.3118 67.5203 41.2885 67.5203 41.2885C67.5203 41.2885 67.6366 40.9908 67.9218 40.7165C68.0498 40.5939 68.2069 40.4772 68.4105 40.3955C68.4163 40.3955 68.428 40.3955 68.4338 40.3896C68.4047 40.3896 68.3756 40.3896 68.3465 40.3896C68.2651 40.3896 68.1894 40.3838 68.108 40.378C65.6001 40.2379 65.2102 39.2165 65.2102 39.2165C66.1529 39.5783 67.3515 39.5492 68.6956 39.485C69.0564 39.4674 69.423 39.4499 69.8012 39.4324C69.999 39.4266 70.2027 39.4149 70.4063 39.4091C72.3789 39.3624 74.0605 40.1328 75.5559 42.0531C75.4861 42.0764 75.4221 42.1114 75.3639 42.1581C74.9333 42.5142 75.0497 43.378 75.6315 44.0901C75.6432 44.1076 75.6606 44.1192 75.6723 44.1309C75.9283 44.4286 76.2192 44.6445 76.5102 44.7671C76.836 44.9013 77.1502 44.9189 77.383 44.7846C77.4237 44.8605 77.4703 44.9422 77.511 45.0181C78.0638 46.0103 78.6049 47.1193 79.3672 48.6193C80.3447 50.5454 81.1535 52.5765 82.358 54.38C83.6672 56.347 85.7619 57.6485 87.589 59.1311C89.3346 60.5552 90.8358 62.0669 92.7618 63.2809C95.4384 64.9677 98.6504 64.6875 101.31 66.7595C97.4924 67.0747 96.0378 68.3179 93.6346 68.172L93.6288 68.1662Z" fill="#5A606E"/>
<path d="M16.4321 12.4611H20.802V18.3852C21.2326 17.8891 21.7272 17.5156 22.2741 17.2646C22.8211 17.0136 23.432 16.8911 24.0954 16.8911C25.4686 16.8911 26.6091 17.4339 27.511 18.5195C28.4129 19.6051 28.8609 21.1576 28.8609 23.1888C28.8609 24.5429 28.6572 25.7335 28.2441 26.7608C27.831 27.788 27.2666 28.5585 26.5392 29.0663C25.8119 29.5741 25.0089 29.8309 24.1186 29.8309C23.3622 29.8309 22.664 29.6499 22.0355 29.2939C21.5584 29.0137 21.0405 28.4884 20.482 27.718V29.5507H16.4321V12.4611ZM20.7729 23.3289C20.7729 24.3911 20.9533 25.1674 21.3198 25.646C21.6864 26.1246 22.1461 26.3639 22.7105 26.3639C23.2284 26.3639 23.6648 26.1304 24.0139 25.6577C24.363 25.1849 24.5376 24.397 24.5376 23.2822C24.5376 22.3016 24.363 21.5837 24.0197 21.1226C23.6764 20.6615 23.2575 20.4339 22.7687 20.4339C22.181 20.4339 21.6981 20.6732 21.3257 21.1518C20.9533 21.6304 20.7671 22.3541 20.7671 23.3289H20.7729Z" fill="#5A606E"/>
<path d="M34.8763 21.1809L30.7392 20.7023C30.8963 19.9085 31.1174 19.284 31.4142 18.8287C31.7109 18.3735 32.1299 17.9766 32.6827 17.6439C33.0783 17.4046 33.6253 17.2178 34.3177 17.0836C35.0102 16.9493 35.7608 16.8851 36.5696 16.8851C37.8671 16.8851 38.9087 16.9668 39.6942 17.1244C40.4797 17.282 41.1373 17.6147 41.6609 18.1225C42.0275 18.4727 42.3185 18.9688 42.5337 19.6108C42.749 20.2529 42.8538 20.8657 42.8538 21.4494V26.9183C42.8538 27.502 42.8887 27.9572 42.9527 28.2899C43.0225 28.6226 43.168 29.0428 43.3949 29.5565H39.3335C39.1705 29.2354 39.0658 28.9961 39.0134 28.8269C38.9611 28.6576 38.9145 28.395 38.8621 28.0389C38.2977 28.6401 37.7333 29.0662 37.1689 29.323C36.4008 29.6673 35.5164 29.8366 34.4981 29.8366C33.154 29.8366 32.1299 29.4922 31.4316 28.8094C30.7334 28.1265 30.3843 27.2802 30.3843 26.2821C30.3843 25.3424 30.6345 24.5661 31.1407 23.9591C31.6411 23.3521 32.5721 22.9027 33.9279 22.605C35.5513 22.249 36.6045 21.998 37.0874 21.8521C37.5704 21.7062 38.0824 21.5194 38.6178 21.286C38.6178 20.7023 38.5072 20.2937 38.2861 20.0603C38.065 19.8268 37.6809 19.7101 37.1282 19.7101C36.4183 19.7101 35.8888 19.8326 35.5338 20.0836C35.2545 20.2762 35.0334 20.6439 34.8647 21.1809H34.8763ZM38.6294 23.679C38.0359 23.9124 37.4133 24.1167 36.7674 24.2977C35.8888 24.5545 35.3302 24.8054 35.0974 25.0564C34.8589 25.3132 34.7367 25.6051 34.7367 25.9319C34.7367 26.3055 34.853 26.609 35.0916 26.8483C35.3302 27.0876 35.6793 27.2043 36.139 27.2043C36.5987 27.2043 37.07 27.0759 37.4831 26.8191C37.8962 26.5623 38.193 26.2471 38.3676 25.8794C38.5421 25.5117 38.6294 25.0272 38.6294 24.4377V23.679Z" fill="#5A606E"/>
<path d="M44.6938 26.1128L48.9881 25.6693C49.1626 26.2296 49.4128 26.6265 49.7328 26.8716C50.0529 27.1109 50.4776 27.2335 51.0071 27.2335C51.589 27.2335 52.0371 27.0992 52.3571 26.8249C52.6073 26.6206 52.7295 26.3697 52.7295 26.0661C52.7295 25.7276 52.5666 25.4591 52.2407 25.2724C52.008 25.1381 51.3854 24.9747 50.3787 24.7821C48.8775 24.4961 47.8301 24.2276 47.2483 23.9825C46.6664 23.7373 46.1718 23.3229 45.7703 22.7393C45.3688 22.1556 45.171 21.4902 45.171 20.749C45.171 19.9319 45.3863 19.2315 45.8169 18.642C46.2474 18.0525 46.8468 17.6089 47.6032 17.3229C48.3596 17.031 49.3779 16.8851 50.6522 16.8851C51.9963 16.8851 52.9913 16.996 53.6372 17.2237C54.2773 17.4513 54.8126 17.8015 55.2432 18.2742C55.6738 18.747 56.0287 19.389 56.3138 20.2003L52.2116 20.6439C52.1069 20.247 51.9265 19.9552 51.6821 19.7684C51.3446 19.5175 50.9315 19.3949 50.4486 19.3949C49.9656 19.3949 49.6048 19.4883 49.3779 19.6809C49.1568 19.8735 49.0404 20.1011 49.0404 20.3754C49.0404 20.6789 49.1801 20.9066 49.4652 21.0642C49.7503 21.2217 50.3671 21.3618 51.3155 21.4844C52.7528 21.6653 53.8234 21.9105 54.5275 22.2315C55.2315 22.5525 55.7669 23.0019 56.1393 23.5914C56.5116 24.1809 56.6978 24.8288 56.6978 25.535C56.6978 26.2412 56.5 26.9475 56.1102 27.6187C55.7145 28.2957 55.0977 28.8327 54.2482 29.2296C53.3986 29.6323 52.2465 29.8308 50.786 29.8308C48.7204 29.8308 47.2541 29.5098 46.3813 28.8619C45.5085 28.214 44.9441 27.2977 44.6938 26.1128Z" fill="#5A606E"/>
<path d="M71.2977 24.537H62.622C62.6977 25.3016 62.8897 25.8677 63.1865 26.2412C63.6054 26.7782 64.1524 27.0467 64.8215 27.0467C65.2463 27.0467 65.6536 26.93 66.0318 26.6965C66.2646 26.5506 66.5148 26.2879 66.7882 25.9144L71.0534 26.3463C70.4017 27.5895 69.6161 28.4825 68.691 29.0195C67.7716 29.5623 66.4449 29.8308 64.7226 29.8308C63.2272 29.8308 62.0518 29.5973 61.1906 29.1362C60.3353 28.6751 59.6254 27.9397 59.061 26.93C58.4966 25.9261 58.2173 24.7412 58.2173 23.3813C58.2173 21.4435 58.7817 19.8793 59.9105 18.6828C61.0394 17.4863 62.6046 16.8851 64.5946 16.8851C66.2122 16.8851 67.4865 17.1536 68.4233 17.6906C69.3601 18.2276 70.07 19.0038 70.5588 20.0252C71.0475 21.0408 71.2919 22.3716 71.2919 24V24.537H71.2977ZM66.8988 22.2607C66.8115 21.3443 66.5904 20.6848 66.2238 20.2879C65.8573 19.891 65.3801 19.6926 64.7808 19.6926C64.0942 19.6926 63.5414 19.9902 63.1341 20.5914C62.8723 20.9649 62.7035 21.5194 62.6337 22.2607H66.8988Z" fill="#5A606E"/>
</svg>
