<svg width="216" height="43" viewBox="0 0 216 43" fill="none" xmlns="http://www.w3.org/2000/svg">
<path d="M50.8335 1.88086V26.408H66.6042V22.6835H55.6499V1.88086H50.8388" fill="#5A606E"/>
<path d="M69.5137 26.4079H74.3248V8.75261H69.5137V26.4079ZM71.9219 7.23503C73.4297 7.23503 74.6871 6.006 74.6871 4.45101C74.6871 2.89602 73.4297 1.66699 71.9219 1.66699C70.4141 1.66699 69.1567 2.93343 69.1567 4.45101C69.1567 5.96859 70.3768 7.23503 71.9219 7.23503Z" fill="#5A606E"/>
<path d="M82.7056 10.8153H82.6363V0.36322H77.8252V26.4079H82.5298L82.6363 24.3453H82.7056C84.2134 26.0446 85.7212 26.7713 88.204 26.7713C92.8766 26.7713 95.9615 22.5392 95.9615 17.2543C95.9615 11.9695 93.1963 8.38931 88.4171 8.38931C85.8651 8.38931 84.3572 9.1481 82.7056 10.8153ZM82.6363 17.1849C82.6363 14.1444 84.0003 12.1191 86.5897 12.1191C89.4614 12.1191 90.9 14.1818 90.9 17.5482C90.9 20.9147 89.4987 23.0468 86.6589 23.0468C84.1814 23.0468 82.6363 21.0911 82.6363 17.9811V17.1849Z" fill="#5A606E"/>
<path d="M108.882 8.39459C106.58 8.53887 104.39 9.94958 103.383 11.9053H103.314L103.208 8.75796H98.5029V26.4079H103.314V19.7497C103.314 16.2069 103.959 14.9405 105.072 14.1443C106.042 13.455 107.193 13.1664 108.77 13.097L108.876 8.39459" fill="#5A606E"/>
<path d="M126.592 16.5329C126.592 12.1565 123.933 8.39459 119.335 8.39459C113.805 8.39459 110.246 12.2313 110.246 18.0558C110.246 23.8804 113.911 26.7766 119.335 26.7766C121.887 26.7766 123.683 26.3812 125.372 25.617L124.871 21.9994C123.288 22.6513 121.674 23.0467 119.948 23.0467C117.039 23.0467 115.169 21.7055 114.993 18.9589H126.379C126.522 18.307 126.592 17.297 126.592 16.5329ZM118.834 12.1191C120.917 12.1191 121.887 13.8183 121.962 15.6298H115.174C115.531 13.6046 116.932 12.1191 118.84 12.1191" fill="#5A606E"/>
<path d="M141.201 1.5174C134.733 1.5174 129.421 6.25717 129.421 14.1443C129.421 22.0315 134.738 26.7713 141.201 26.7713C147.664 26.7713 152.981 22.0315 152.981 14.1443C152.981 6.25717 147.664 1.5174 141.201 1.5174ZM141.201 3.97545C146.012 3.97545 149.678 7.59307 149.678 14.139C149.678 20.6849 146.012 24.3025 141.201 24.3025C136.39 24.3025 132.724 20.6849 132.724 14.139C132.724 7.59307 136.39 3.97545 141.201 3.97545Z" fill="#5A606E"/>
<path d="M157.584 7.7801V8.90226H154.744V11.216H157.584V26.4079H160.6V11.216H165.054V8.90226H160.6V7.30986C160.6 4.16248 161.926 2.31894 164.334 2.31894C165.448 2.31894 166.167 2.50062 166.849 2.75177L167.137 0.507459C166.492 0.25631 165.267 -0.000183105 164.297 -0.000183105C160.024 -0.000183105 157.579 2.78383 157.579 7.7801" fill="#5A606E"/>
<path d="M167.617 7.7801V8.90226H164.777V11.216H167.617V26.4079H170.633V11.216H175.087V8.90226H170.633V7.30986C170.633 4.16248 171.959 2.31894 174.368 2.31894C175.481 2.31894 176.2 2.50062 176.882 2.75177L177.17 0.507459C176.525 0.25631 175.3 -0.000183105 174.33 -0.000183105C170.057 -0.000183105 167.612 2.78383 167.612 7.7801" fill="#5A606E"/>
<path d="M178.587 26.4077H181.603V8.89671H178.587V26.4077ZM180.095 6.33178C181.139 6.33178 181.965 5.49818 181.965 4.45083C181.965 3.40349 181.139 2.56989 180.095 2.56989C179.05 2.56989 178.225 3.40349 178.225 4.45083C178.225 5.49818 179.05 6.33178 180.095 6.33178Z" fill="#5A606E"/>
<path d="M187.879 17.5803C187.879 13.1665 190.5 10.8527 193.915 10.8527C195.711 10.8527 197.293 11.2856 198.588 11.9001L198.876 9.58629C197.799 9.04124 196.073 8.53894 194.171 8.53894C188.785 8.53894 184.725 11.8306 184.725 17.9811C184.725 23.7682 188.39 26.7713 193.239 26.7713C195.396 26.7713 196.936 26.5202 198.7 25.756L198.412 23.4422C196.904 24.1316 195.285 24.4575 193.777 24.4575C190.292 24.4575 187.884 22.2506 187.884 17.5857" fill="#5A606E"/>
<path d="M215.888 18.339C215.957 17.6871 215.994 17.1474 215.994 16.6023C215.994 12.1137 213.661 8.53351 209.169 8.53351C204.321 8.53351 200.762 12.584 200.762 17.9757C200.762 23.907 204.315 26.7659 209.169 26.7659C211.327 26.7659 212.941 26.4399 214.63 25.7506L214.343 23.4368C213.016 24.0887 211.109 24.4521 209.601 24.4521C206.116 24.4521 203.852 22.32 203.783 18.339H215.888ZM208.919 10.8526C211.577 10.8526 213.016 13.0595 213.016 15.9558H203.927C204.358 12.8832 206.047 10.8526 208.919 10.8526Z" fill="#5A606E"/>
<path d="M58.0373 32.489H50.8286V33.5257H53.8016V42.8396H55.0324V33.5257H58.0373V32.489Z" fill="#5A606E"/>
<path d="M60.4129 36.6783V31.853H59.1821V42.8502H60.4129V38.789C60.4129 37.2607 61.308 36.347 62.4055 36.347C63.5031 36.347 63.8281 37.0203 63.8281 38.4417V42.8555H65.0588V38.0463C65.0588 36.2455 64.2703 35.3103 62.7572 35.3103C61.7022 35.3103 60.9403 35.9195 60.4448 36.6836H60.4129" fill="#5A606E"/>
<path d="M72.8754 39.4409C72.9073 39.1684 72.918 38.9386 72.918 38.7089C72.918 36.8172 71.9643 35.305 70.1368 35.305C68.1601 35.305 66.7109 37.0149 66.7109 39.2913C66.7109 41.7975 68.1601 42.9998 70.1368 42.9998C71.0159 42.9998 71.6766 42.8608 72.3639 42.5723L72.2467 41.5944C71.7032 41.8669 70.9307 42.0219 70.3126 42.0219C68.8901 42.0219 67.9683 41.1188 67.9417 39.4409H72.8807M70.0409 36.2775C71.1225 36.2775 71.7085 37.2073 71.7085 38.431H68.0003C68.1761 37.1325 68.8634 36.2775 70.0356 36.2775" fill="#5A606E"/>
<path d="M77.9799 32.6279V42.754C78.6992 42.8609 79.7541 42.9196 80.5427 42.9196C83.5476 42.9196 86.3714 41.1028 86.3714 37.3463C86.3714 34.0493 84.203 32.4141 80.5693 32.4141C79.7648 32.4141 78.8271 32.4729 77.9746 32.6279M79.2054 33.5416C79.6582 33.4668 80.1591 33.4508 80.6972 33.4508C83.4944 33.4508 85.0181 35.0111 85.0181 37.4959C85.0181 40.4456 83.0575 41.8776 80.6812 41.8776C80.2283 41.8776 79.7168 41.8616 79.2 41.8189V33.5416" fill="#5A606E"/>
<path d="M90.9474 35.2997C88.8109 35.2997 87.5322 36.9776 87.5322 39.1471C87.5322 41.3166 88.8056 42.9945 90.9474 42.9945C93.0893 42.9945 94.3627 41.3166 94.3627 39.1471C94.3627 36.9776 93.0893 35.2997 90.9474 35.2997ZM90.9474 42.022C89.4663 42.022 88.8216 40.6914 88.8216 39.1525C88.8216 37.6135 89.4663 36.283 90.9474 36.283C92.4286 36.283 93.0733 37.6135 93.0733 39.1525C93.0733 40.6914 92.4286 42.022 90.9474 42.022Z" fill="#5A606E"/>
<path d="M96.8616 39.1204C96.8616 37.2555 97.9325 36.2776 99.3231 36.2776C100.053 36.2776 100.698 36.4593 101.225 36.7211L101.342 35.7433C100.906 35.5135 100.202 35.2997 99.4244 35.2997C97.2293 35.2997 95.5723 36.6891 95.5723 39.2861C95.5723 41.7281 97.0641 42.9945 99.0461 42.9945C99.9252 42.9945 100.554 42.8877 101.273 42.567L101.156 41.5892C100.543 41.8777 99.8826 42.0167 99.2645 42.0167C97.842 42.0167 96.8616 41.0869 96.8616 39.1151" fill="#5A606E"/>
<path d="M107.47 41.6266L107.513 42.8503H108.701V35.4601H107.47V39.5212C107.47 41.0495 106.575 41.9632 105.478 41.9632C104.38 41.9632 104.055 41.2899 104.055 39.8685V35.4547H102.824V40.264C102.824 42.0647 103.613 42.9999 105.126 42.9999C106.181 42.9999 106.943 42.3907 107.438 41.6266H107.47Z" fill="#5A606E"/>
<path d="M119.58 38.2814V42.8502H120.811V37.886C120.811 36.2348 120.081 35.305 118.675 35.305C117.662 35.305 116.858 35.9783 116.389 36.9722H116.346C116.069 35.9355 115.483 35.305 114.354 35.305C113.341 35.305 112.697 35.8714 112.201 36.6783H112.169L112.127 35.4546H110.938V42.8448H112.169V39.0883C112.169 37.4211 112.873 36.3417 113.97 36.3417C114.892 36.3417 115.259 37.0149 115.259 38.2814V42.8502H116.49V39.0936C116.49 37.3997 117.193 36.347 118.291 36.347C119.213 36.347 119.58 37.0203 119.58 38.2867" fill="#5A606E"/>
<path d="M128.606 39.4409C128.638 39.1684 128.648 38.9386 128.648 38.7089C128.648 36.8172 127.695 35.305 125.867 35.305C123.891 35.305 122.441 37.0149 122.441 39.2913C122.441 41.7975 123.891 42.9998 125.867 42.9998C126.746 42.9998 127.407 42.8608 128.094 42.5723L127.977 41.5944C127.434 41.8669 126.661 42.0219 126.043 42.0219C124.621 42.0219 123.699 41.1188 123.672 39.4409H128.611M125.771 36.2775C126.853 36.2775 127.439 37.2073 127.439 38.431H123.731C123.907 37.1325 124.594 36.2775 125.766 36.2775" fill="#5A606E"/>
<path d="M131.621 36.6783L131.579 35.4546H130.391V42.8448H131.621V38.7837C131.621 37.2554 132.516 36.3417 133.614 36.3417C134.712 36.3417 135.037 37.0149 135.037 38.4363V42.8502H136.267V38.0409C136.267 36.2401 135.479 35.305 133.966 35.305C132.911 35.305 132.149 35.9142 131.653 36.6783H131.621Z" fill="#5A606E"/>
<path d="M141.755 35.4547H140.056V33.8196H138.825V35.4547H137.695V36.4326H138.825V41.0281C138.825 42.3747 139.528 42.9999 140.668 42.9999C141.27 42.9999 141.665 42.9411 141.974 42.8022L141.84 41.8724C141.59 41.9793 141.329 42.0274 141.052 42.0274C140.333 42.0274 140.056 41.5999 140.056 40.7128V36.4379H141.755V35.4601" fill="#5A606E"/>
<path d="M148.1 42.8448V38.1691H151.659V37.1324H148.1V33.5309H152.16V32.4942H146.875V42.8501H148.106" fill="#5A606E"/>
<path d="M156.61 35.2997C154.473 35.2997 153.194 36.9776 153.194 39.1471C153.194 41.3166 154.468 42.9945 156.61 42.9945C158.751 42.9945 160.025 41.3166 160.025 39.1471C160.025 36.9776 158.751 35.2997 156.61 35.2997ZM156.61 42.022C155.128 42.022 154.484 40.6914 154.484 39.1525C154.484 37.6135 155.128 36.283 156.61 36.283C158.091 36.283 158.735 37.6135 158.735 39.1525C158.735 40.6914 158.091 42.022 156.61 42.022Z" fill="#5A606E"/>
<path d="M166.317 41.6266L166.359 42.8503H167.548V35.4601H166.317V39.5212C166.317 41.0495 165.422 41.9632 164.324 41.9632C163.227 41.9632 162.902 41.2899 162.902 39.8685V35.4547H161.671V40.264C161.671 42.0647 162.459 42.9999 163.973 42.9999C165.028 42.9999 165.789 42.3907 166.285 41.6266H166.317Z" fill="#5A606E"/>
<path d="M171.016 36.6783L170.973 35.4546H169.785V42.8448H171.016V38.7837C171.016 37.2554 171.911 36.3417 173.009 36.3417C174.106 36.3417 174.431 37.0149 174.431 38.4363V42.8502H175.662V38.0409C175.662 36.2401 174.873 35.305 173.36 35.305C172.305 35.305 171.543 35.9142 171.048 36.6783H171.016Z" fill="#5A606E"/>
<path d="M182.791 36.5981C182.264 35.695 181.502 35.2996 180.505 35.2996C178.603 35.2996 177.314 36.9508 177.314 39.2859C177.314 41.6211 178.47 42.9944 180.42 42.9944C181.443 42.9944 182.237 42.5081 182.791 41.6959H182.823L182.866 42.8394H184.054V31.8423H182.823V36.5927H182.791M182.823 39.5852C182.823 40.8676 182.061 42.0112 180.804 42.0112C179.381 42.0112 178.609 40.8516 178.609 39.1577C178.609 37.4638 179.355 36.2721 180.777 36.2721C181.907 36.2721 182.828 37.2821 182.828 38.6981V39.5852" fill="#5A606E"/>
<path d="M188.753 35.2997C188.033 35.2997 187.32 35.4226 186.558 35.7272L186.675 36.7051C187.394 36.4166 187.98 36.2776 188.577 36.2776C189.659 36.2776 190.117 36.9349 190.117 37.9715V38.1853C189.781 38.1265 189.456 38.0944 188.945 38.0944C187.144 38.0944 185.78 39.0242 185.78 40.6433C185.78 42.1556 186.851 42.9945 187.991 42.9945C188.929 42.9945 189.706 42.4922 190.085 41.696H190.117L190.159 42.8396H191.347V37.8326C191.347 36.1654 190.394 35.2997 188.753 35.2997ZM190.117 39.6655C190.117 41.1296 189.397 42.0167 188.359 42.0167C187.613 42.0167 187.101 41.4502 187.101 40.5525C187.101 39.5746 187.703 38.9334 189.136 38.9334C189.504 38.9334 189.824 38.9815 190.117 39.0242V39.6655Z" fill="#5A606E"/>
<path d="M196.825 35.4547H195.125V33.8196H193.894V35.4547H192.765V36.4326H193.894V41.0281C193.894 42.3747 194.597 42.9999 195.738 42.9999C196.34 42.9999 196.734 42.9411 197.043 42.8022L196.91 41.8724C196.659 41.9793 196.398 42.0274 196.121 42.0274C195.402 42.0274 195.125 41.5999 195.125 40.7128V36.4379H196.825V35.4601" fill="#5A606E"/>
<path d="M198.626 42.8451H199.856V35.4549H198.626V42.8451ZM199.238 34.3701C199.665 34.3701 200 34.0174 200 33.5739C200 33.1304 199.665 32.7777 199.238 32.7777C198.812 32.7777 198.477 33.1304 198.477 33.5739C198.477 34.0174 198.812 34.3701 199.238 34.3701Z" fill="#5A606E"/>
<path d="M204.987 35.2997C202.851 35.2997 201.572 36.9776 201.572 39.1471C201.572 41.3166 202.846 42.9945 204.987 42.9945C207.129 42.9945 208.403 41.3166 208.403 39.1471C208.403 36.9776 207.129 35.2997 204.987 35.2997ZM204.987 42.022C203.506 42.022 202.862 40.6914 202.862 39.1525C202.862 37.6135 203.506 36.283 204.987 36.283C206.469 36.283 207.113 37.6135 207.113 39.1525C207.113 40.6914 206.469 42.022 204.987 42.022Z" fill="#5A606E"/>
<path d="M211.354 36.6783L211.311 35.4546H210.123V42.8448H211.354V38.7837C211.354 37.2554 212.249 36.3417 213.346 36.3417C214.444 36.3417 214.769 37.0149 214.769 38.4363V42.8502H216V38.0409C216 36.2401 215.211 35.305 213.698 35.305C212.643 35.305 211.881 35.9142 211.386 36.6783H211.354Z" fill="#5A606E"/>
<path fill-rule="evenodd" clip-rule="evenodd" d="M24.7324 1.31435C24.3328 1.30367 23.9332 1.55482 23.7787 1.92352C23.6242 2.29223 23.7148 2.74644 24.0025 3.02431L32.6338 11.7077C32.9108 11.9855 33.3637 12.0817 33.7313 11.9321C34.099 11.7825 34.36 11.4084 34.36 11.013V2.31361C34.36 1.78993 33.8805 1.31435 33.3477 1.31435H24.7324Z" fill="#5A606E"/>
<path fill-rule="evenodd" clip-rule="evenodd" d="M1.00698 1.31458C0.447547 1.32526 0 1.77947 0 2.34055V41.9687C0 42.5298 0.447547 42.9893 1.00698 42.9947H33.3369C33.9017 42.9947 34.3599 42.5351 34.3599 41.9687V16.4477C34.3599 16.1751 34.2533 15.9133 34.0615 15.7209L20.0757 1.62985C19.8839 1.43213 19.6228 1.31992 19.3511 1.31458H1.00698ZM2.02995 3.36652H18.9195L32.3086 16.8645V40.9427H2.02995V3.36652Z" fill="#5A606E"/>
</svg>
