<svg width="297" height="45" viewBox="0 0 297 45" fill="none" xmlns="http://www.w3.org/2000/svg">
<path d="M75.1504 23.2822H63.6715V11.6562H75.7738C80.207 11.6562 82.4236 13.6287 82.4236 17.5638C82.4236 21.4989 79.9992 23.2921 75.1504 23.2921M83.4033 11.5267C81.82 10.1121 79.6232 9.39478 76.8029 9.39478L60.3564 9.48444V37.2991H63.6715L63.6418 25.4539H75.8827C78.9503 25.4539 81.3648 24.7466 83.1262 23.322C84.8877 21.8974 85.7684 19.9348 85.7684 17.4144C85.7684 14.8939 84.9866 12.9314 83.4033 11.5068V11.5267ZM104.847 31.4612C104.53 32.3678 103.986 33.1847 103.274 33.8322C101.789 35.2867 99.5233 36.0139 96.4754 36.0139C93.7244 36.0139 91.6167 35.3166 90.1422 33.892C88.6678 32.4674 87.9355 30.5745 87.9355 28.2035C87.9355 26.9682 88.1235 25.8624 88.5094 24.906C88.8954 23.9496 89.4495 23.1427 90.1818 22.4752C91.7057 21.0805 93.8036 20.3832 96.4754 20.3832C102.393 20.3832 105.352 22.9933 105.352 28.2035C105.352 29.4388 105.184 30.5247 104.857 31.4711M105.461 21.21C103.442 19.357 100.453 18.4206 96.4952 18.4206C92.7547 18.4206 89.8651 19.367 87.8266 21.2598C85.9861 22.9733 85.0559 25.2846 85.0559 28.1936C85.0559 31.1025 86.0059 33.4138 87.9058 35.1871C88.9548 36.1435 90.1719 36.8408 91.5771 37.2692C92.9823 37.6976 94.615 37.9167 96.4952 37.9167C100.434 37.9167 103.422 37.0002 105.49 35.1671C107.331 33.4935 108.261 31.1822 108.261 28.2035C108.261 25.2248 107.331 22.8837 105.471 21.21H105.461ZM130.516 32.2881C130.516 36.0339 127.181 37.9068 120.522 37.9068C118.483 37.9068 116.771 37.7773 115.376 37.5182C113.981 37.2592 112.853 36.8308 111.982 36.2232C111.309 35.7649 110.765 35.1472 110.379 34.4299C109.983 33.6927 109.726 32.7662 109.607 31.6405L112.704 31.6106C112.704 33.085 113.248 34.1709 114.327 34.8683C115.495 35.7051 117.553 36.1235 120.512 36.1235C125.173 36.1235 127.498 34.948 127.498 32.5969C127.498 31.2221 126.706 30.2757 125.153 29.7576C124.836 29.658 122.956 29.389 119.512 28.9706C116.069 28.5522 113.911 28.1637 113.06 27.825C111.22 27.0878 110.3 25.7628 110.3 23.85C110.3 21.9373 111.121 20.5824 112.773 19.6659C113.585 19.2873 114.604 18.9984 115.821 18.7792C117.038 18.57 118.454 18.4604 120.057 18.4604C126.469 18.4604 129.675 20.4828 129.675 24.5374H126.726C126.726 21.6882 124.47 20.2536 119.958 20.2536C117.662 20.2536 115.95 20.5525 114.822 21.1204C113.694 21.6882 113.13 22.5848 113.13 23.7803C113.13 24.8961 113.892 25.703 115.416 26.2011C116.306 26.4601 118.355 26.759 121.561 27.0977C124.43 27.3567 126.4 27.7253 127.468 28.1936C129.507 28.9905 130.526 30.3454 130.526 32.2582L130.506 32.2881H130.516ZM142.698 37.3588L141.441 37.5382L140.659 37.5979C138.641 37.5979 137.196 37.309 136.295 36.7113C135.395 36.1136 134.959 35.0875 134.959 33.623V20.9112H131.288V19.0482H134.94L134.969 13.0509H137.799V19.0482H142.718V20.941L137.799 20.9112V33.2644C137.799 34.1809 138.037 34.8185 138.532 35.1572C139.027 35.4959 139.878 35.6852 141.124 35.6852C141.303 35.7051 141.5 35.6951 141.718 35.6653C142.045 35.6055 142.371 35.5358 142.698 35.4361L142.727 37.329V37.3489L142.698 37.3588ZM162.242 33.1448C161.47 33.7824 160.589 34.2705 159.599 34.6093C158.61 34.948 157.472 35.1074 156.186 35.1074C150.278 35.1074 147.319 32.6467 147.319 27.7353C147.319 25.444 148.071 23.6607 149.585 22.3656C151.099 21.0705 153.227 20.423 155.978 20.423C158.729 20.423 160.846 21.0805 162.281 22.3756C163.716 23.6707 164.429 25.4241 164.429 27.6158C164.429 30.0067 163.696 31.8398 162.232 33.1348M167.249 19.0482H164.419L164.389 22.1863C163.142 20.9112 162.252 20.1042 161.717 19.7655C160.134 18.8888 158.085 18.4505 155.572 18.4505C151.891 18.4505 149.08 19.2973 147.141 20.9908C145.3 22.545 144.38 24.7964 144.38 27.7353C144.38 29.1898 144.618 30.4849 145.083 31.6206C145.548 32.7563 146.231 33.7326 147.121 34.5296C149.061 36.1634 151.812 36.9803 155.354 36.9803C159.609 36.9803 162.637 35.8047 164.419 33.4636V36.7113C164.419 38.7834 163.775 40.3874 162.479 41.5231C161.183 42.6588 159.055 43.2167 156.087 43.2167C153.296 43.2167 151.307 42.8182 150.119 42.061C149.229 41.4633 148.615 40.4372 148.279 38.9727H145.37C145.686 41.025 146.557 42.5093 147.942 43.4159C149.565 44.4719 152.297 44.9999 156.156 44.9999C163.538 44.9999 167.239 42.2404 167.239 36.7113V19.0382L167.249 19.0482ZM182.538 20.8813C181.686 20.7418 180.895 20.682 180.163 20.682C175.512 20.682 173.196 23.2523 173.196 28.3729V37.2891H170.396L170.366 19.0382L173.196 19.0681V22.3258H173.344C173.819 21.0407 174.572 20.0743 175.601 19.4068C176.729 18.7693 178.411 18.4405 180.638 18.4405H182.538V20.8713V20.8813ZM185.16 27.018C185.516 24.9459 186.318 23.3419 187.564 22.1963C188.376 21.5388 189.296 21.0407 190.325 20.7119C191.354 20.3832 192.502 20.2138 193.799 20.2138C196.312 20.2138 198.351 20.9111 199.954 22.2959C201.557 23.6807 202.339 25.2547 202.339 27.0081H185.17M202.616 21.3794C201.626 20.3832 200.399 19.6459 198.935 19.1578C197.47 18.6696 195.768 18.4405 193.789 18.4405C190.127 18.4405 187.287 19.2973 185.269 21.0108C183.25 22.7243 182.241 25.0555 182.241 28.0043C182.241 30.9531 183.21 33.2843 185.15 35.0277C187.248 36.9404 190.197 37.8968 194.026 37.8968C195.55 37.8968 196.955 37.7275 198.252 37.3788C199.548 37.0301 200.686 36.5419 201.646 35.9044C203.348 34.669 204.427 33.1548 204.882 31.3516H201.824C200.775 34.4698 198.163 36.0339 193.997 36.0339C191.048 36.0339 188.782 35.2668 187.198 33.7425C185.833 32.4375 185.15 30.7439 185.15 28.6618H205.297C205.297 25.5635 204.407 23.1327 202.596 21.3893L202.616 21.3794Z" fill="#5A606E"/>
<path d="M235.192 29.8374C235.192 35.2569 230.848 37.9666 222.17 37.9666C216.965 37.9666 213.165 37.0301 210.78 35.1772C208.82 33.643 207.841 31.3018 207.841 28.1538H211.334C211.334 33.2146 214.946 35.745 222.17 35.745C225.633 35.745 228.137 35.227 229.69 34.1909C230.997 33.2744 231.65 31.8398 231.65 29.8972C231.65 27.9545 230.759 26.6096 228.978 25.8326C227.968 25.4141 225.514 24.8861 221.586 24.2486C216.658 23.4914 213.462 22.7343 211.997 21.9772C209.879 20.8614 208.83 18.9686 208.83 16.3086C208.83 13.8181 209.721 11.9751 211.532 10.7597C213.471 9.42471 216.796 8.75724 221.507 8.75724C230.017 8.75724 234.272 11.6065 234.272 17.2949H230.749C230.749 13.0311 227.592 10.8991 221.269 10.8991C218.103 10.8991 215.787 11.3275 214.313 12.1942C212.927 13.1108 212.234 14.4557 212.234 16.2289C212.234 18.0022 213.125 19.387 214.906 20.1441C215.856 20.5824 218.647 21.1901 223.278 21.9672C227.632 22.6247 230.571 23.3918 232.085 24.2585C234.163 25.3344 235.202 27.1974 235.202 29.8374H235.192ZM263.593 32.6069C262.286 33.6629 260.812 34.4499 259.169 34.9779C257.527 35.5059 255.686 35.7649 253.648 35.7649C249.491 35.7649 246.127 34.6392 243.564 32.3778C241.001 30.1163 239.715 27.1177 239.715 23.352C239.715 19.5862 240.991 16.3784 243.534 14.1966C246.077 12.0149 249.452 10.9191 253.648 10.9191C257.843 10.9191 261.257 12.0647 263.692 14.3461C264.978 15.4618 265.928 16.7669 266.542 18.2513C267.155 19.7357 267.462 21.4392 267.462 23.352C267.462 27.2472 266.175 30.3355 263.603 32.5969M265.463 34.44C267.284 33.1449 268.63 31.5808 269.5 29.7378C270.371 27.8948 270.807 25.7728 270.807 23.3619C270.807 19.0483 269.382 15.5914 266.532 12.9713C265.008 11.5367 263.167 10.4708 261.01 9.77339C258.853 9.07604 256.389 8.72736 253.618 8.72736C248.235 8.72736 244.019 10.0424 240.952 12.6724C237.884 15.3025 236.35 18.859 236.35 23.3619C236.35 27.8649 237.894 31.272 240.991 33.9618C244.088 36.6516 248.314 37.9865 253.677 37.9865C255.775 37.9865 257.606 37.8471 259.169 37.5581C260.733 37.2692 262.059 36.8309 263.147 36.2431L268.313 39.8495L270.47 37.857L265.473 34.44H265.463ZM296.98 37.2892H273.083V9.43468L276.368 9.3749V34.958H297L296.971 37.2792H296.98V37.2892Z" fill="#5A606E"/>
<path d="M21.9617 24.3779L22.0706 24.1289C22.2091 23.8101 22.3773 23.5013 22.5455 23.1625C23.3768 21.5885 24.4059 19.6359 23.2184 14.9337C23.0007 14.0869 22.5159 13.5888 21.6747 13.3696C19.6857 12.8516 16.6577 14.1865 15.9551 14.6847C15.9551 14.7743 15.965 14.8739 15.9749 14.9935C16.0441 15.9997 16.1926 18.0918 15.8066 20.4229C15.5691 21.8475 16.0046 23.2323 17.004 24.3381C18.0727 25.5037 19.6461 26.1512 21.2591 26.1512C21.4174 25.5933 21.6747 25.0155 21.9419 24.3879L21.9617 24.3779ZM21.0513 15.392C20.5466 15.3322 20.1508 15.0134 19.9529 14.7544C19.8342 14.585 19.7748 14.4356 19.8045 14.3061C19.8737 13.8976 20.5664 13.798 21.2294 13.8777C21.6648 13.9275 22.1992 14.077 22.3971 14.3459C22.4862 14.4655 22.4862 14.5751 22.4763 14.6448C22.4169 14.9736 21.8529 15.4019 21.2195 15.4019C21.1602 15.4019 21.1107 15.4019 21.0513 15.4019V15.392Z" fill="#5A606E"/>
<path d="M14.4707 20.1941C14.827 18.0223 14.6884 16.1096 14.6192 15.0835C14.5994 14.8244 14.5895 14.6351 14.5895 14.4957C14.5895 14.4857 14.5895 14.4758 14.5895 14.4658C14.5895 14.2267 14.4509 8.53824 18.0727 4.82232C18.2607 4.63304 18.4587 4.45372 18.6665 4.28436C15.9155 3.52723 9.10731 2.07273 5.33709 4.95183C3.39755 6.43621 2.51684 8.93673 2.71475 12.3936C2.88298 15.0934 6.44539 29.1004 10.562 30.6445C11.4031 30.9633 12.2343 30.6844 13.1051 29.7878C14.6983 28.144 16.1926 26.7592 16.9347 26.0718C16.6082 25.8228 16.3014 25.5538 16.0243 25.2549C14.7478 23.8602 14.1838 22.0172 14.4806 20.1941H14.4707Z" fill="#5A606E"/>
<path d="M41.6243 12.3336C41.6243 12.4531 41.6243 12.5627 41.5946 12.6623C41.6243 13.5589 41.4957 14.3161 41.367 15.0533C41.2582 15.641 41.1493 16.2487 41.1295 16.9561C41.0998 17.6136 41.2087 18.3308 41.3076 19.078C41.5649 20.931 41.842 23.0131 40.3874 25.1251C40.3874 25.1251 40.3972 25.145 40.4071 25.145C40.4962 25.2447 40.5853 25.3343 40.6644 25.424C46.4731 17.6733 48.5215 8.66746 46.7205 6.70489C42.4753 2.07244 35.875 2.44104 32.5698 2.99893C38.7744 5.45961 41.4957 10.9189 41.6045 12.3435L41.6243 12.3336Z" fill="#5A606E"/>
<path d="M40.2489 13.141C37.7255 12.872 36.0928 13.2007 35.5089 14.1272C34.3313 16.0101 37.1417 20.3237 38.3489 22.1668C38.6854 22.6848 38.913 23.0335 39.0219 23.2626C39.1604 23.5515 39.3187 23.8105 39.4869 24.0397C40.4072 22.4656 40.1895 20.9115 39.9619 19.2677C39.8531 18.4907 39.7343 17.6837 39.764 16.8967C39.7937 16.0997 39.9125 15.4422 40.0312 14.8047C40.1401 14.2268 40.2291 13.7088 40.2489 13.141ZM38.6953 14.2866C38.5172 14.5257 38.1411 14.8246 37.676 14.8843C37.6266 14.8843 37.5672 14.8843 37.5177 14.8843C36.9141 14.8843 36.4193 14.4759 36.3797 14.2268C36.3797 14.177 36.3797 14.0973 36.4391 14.0176C36.5875 13.8184 37.013 13.659 37.5276 13.5992C38.1016 13.5295 38.7448 13.5992 38.8239 13.908V13.928C38.8536 14.0475 38.7646 14.197 38.6953 14.2866Z" fill="#5A606E"/>
<path d="M40.5658 27.566C40.447 27.6058 40.3283 27.6357 40.1996 27.6656C39.497 27.835 38.8934 27.9744 38.9528 29.3193C39.5861 29.7477 43.1485 29.7079 45.088 28.9408C45.9193 28.612 46.5526 28.2434 46.988 27.9445C43.0792 28.622 41.3376 28.1438 40.5658 27.5759V27.566Z" fill="#5A606E"/>
<path d="M23.6044 27.8746C23.1888 27.7252 22.9018 27.6256 22.3774 28.1237C22.0508 28.4325 21.8232 28.6915 21.6154 28.9008C20.7149 29.8771 20.3389 30.1859 17.7165 30.6441C17.291 30.7238 17.0041 30.7936 16.8062 30.8633C17.0239 30.9729 17.3306 31.0825 17.6473 31.1423C19.6363 31.5706 22.4071 31.6005 24.2872 29.3491C24.4159 29.1996 24.4456 28.9904 24.3862 28.7513C24.2773 28.3628 23.9508 28.0041 23.6044 27.8746Z" fill="#5A606E"/>
<path d="M39.4278 26.0714C38.9528 25.5733 38.3096 24.8859 37.8049 23.8498C37.7356 23.7004 37.4783 23.3119 37.2112 22.9034C35.6378 20.4926 32.7186 16.0195 34.3612 13.3895C35.2222 12.0147 37.0924 11.4668 40.0512 11.7357C39.1408 9.49423 35.2815 3.25786 26.2963 3.13831C23.2188 3.09846 20.7845 3.9851 19.0329 5.76835C16.8064 8.03974 16.183 11.2874 16.0049 13.0806C17.1726 12.4929 18.7855 12.0545 19.7058 11.935C22.3084 11.6162 24.0203 12.5526 24.5349 14.5849C25.851 19.7952 24.6339 22.1065 23.7432 23.7901C23.5849 24.0889 23.4365 24.3778 23.3078 24.6668L23.199 24.9158C22.9516 25.4737 22.7339 25.9818 22.5954 26.44C23.2188 26.2806 23.7432 26.46 24.05 26.5695C24.8219 26.8385 25.4651 27.5458 25.6927 28.3727C25.7125 28.4325 25.7125 28.5022 25.7224 28.562C25.762 28.6517 25.7817 28.7513 25.7817 28.8509C25.5937 34.5194 25.9104 38.8132 26.326 39.6998C26.8406 40.7857 27.7905 42.818 31.5608 42.1206C35.0539 41.483 35.8852 40.2975 36.3404 38.0461C36.7263 36.0935 37.5179 30.5445 37.6169 29.3889C37.508 27.0975 38.9231 26.5695 39.7049 26.3703C39.6158 26.2707 39.5168 26.1611 39.4179 26.0615L39.4278 26.0714Z" fill="#5A606E"/>
<path d="M50.2532 26.9184C50.0751 26.2709 49.3626 24.8164 46.6314 25.2946C45.4836 25.4938 44.6127 25.5735 43.9596 25.5934C49.0064 18.1317 51.9949 8.44837 48.7491 4.9018C42.7524 -1.61352 32.9458 -0.0394791 30.1355 0.777426C28.9678 0.598106 27.7012 0.498483 26.3652 0.478559C23.9012 0.43871 21.7242 0.916898 19.8638 1.8932C17.0832 1.06633 8.71148 -0.946045 3.7241 2.83961C1.0226 4.9018 -0.224248 8.18935 0.0330381 12.6026C0.112203 14.0173 3.22932 30.8435 9.63177 33.2544C10.6015 33.623 12.4223 33.9418 14.3619 32.3877C14.916 33.0751 15.8561 33.5931 17.1227 33.8721C19.4284 34.3602 21.5461 34.2108 23.3273 33.4536C23.3273 33.7027 23.3471 33.9418 23.3471 34.151C23.357 34.5196 23.3669 34.8783 23.3867 35.217C23.4955 37.5282 23.6835 39.3314 24.2377 40.6165C24.2674 40.6962 24.307 40.7859 24.3465 40.8855C24.7523 41.9515 25.8903 44.9302 29.8881 44.9302C30.4125 44.9302 30.9964 44.8804 31.6297 44.7608C36.5181 43.8642 39.4175 41.6227 39.7045 32.8758L39.7639 32.4773C39.7639 32.4773 39.7738 32.3877 39.7837 32.3478L40.4368 32.3976C42.3565 32.4674 44.7018 32.1287 46.1367 31.5608C47.6012 30.983 50.936 29.3691 50.2631 26.9483L50.2532 26.9184ZM45.5924 30.196C44.494 30.6343 42.5841 30.9531 40.9217 30.9531C40.1201 30.9531 39.3879 30.8734 38.8238 30.7041C38.5566 32.8161 37.9728 36.7412 37.666 38.3252C37.0426 41.4135 35.4593 42.8082 31.8078 43.4757C31.2042 43.5853 30.65 43.6351 30.1454 43.6351C26.672 43.6351 25.5637 41.2641 25.0986 40.2878C24.5346 39.0823 24.3366 35.1273 24.3762 31.1424C23.0997 32.1785 21.4867 32.7264 19.6461 32.7264C18.9237 32.7264 18.1618 32.6467 17.3701 32.4773C16.9941 32.3976 15.1238 31.9394 15.1436 30.7937C15.1634 29.8373 16.4004 29.4887 17.4889 29.2994C19.7748 28.9009 19.943 28.7216 20.6258 27.9744C20.7544 27.8349 20.9029 27.6755 21.0711 27.5062C20.042 27.4863 19.0425 27.2372 18.142 26.8088C17.6076 27.297 15.9056 28.8511 14.065 30.7439C13.026 31.8099 12.0463 32.1386 11.225 32.1386C10.7995 32.1386 10.4135 32.049 10.087 31.9294C5.06001 30.0366 1.51738 15.1629 1.35905 12.4731C1.12155 8.53803 2.19028 5.63901 4.51575 3.86573C9.46355 0.0900303 18.429 2.74995 20.0716 3.27795C21.8034 2.25184 23.9012 1.74377 26.3257 1.78361C27.6616 1.80354 28.8985 1.95297 30.0464 2.20203C30.086 2.19207 30.1157 2.18211 30.1751 2.16218V2.14226C30.1751 2.14226 30.2641 2.12233 30.3136 2.12233C32.2927 1.55448 41.842 -0.657139 47.7398 5.77848C50.4017 8.68746 47.2747 19.0183 41.5352 26.5398C42.03 26.8088 43.3956 27.1774 46.8294 26.5797C47.2747 26.5 48.6403 26.2609 48.9173 27.2272C49.3231 28.6817 45.9882 30.0466 45.6023 30.206L45.5924 30.196Z" fill="#5A606E"/>
</svg>
