<svg width="140" height="140" viewBox="0 0 140 140" fill="none" xmlns="http://www.w3.org/2000/svg">
<path d="M0 128.414V99.2837H25.1922V128.414H18.8591V105.305H6.3331V128.414H0Z" fill="#231F20"/>
<path d="M35.9096 110.676C36.371 109.888 37.4855 109.218 38.4488 108.66C39.4083 108.105 40.6189 107.828 42.0803 107.828C43.3536 107.828 44.5715 108.087 45.7341 108.601C46.8966 109.115 47.9189 109.843 48.7973 110.779C49.6756 111.715 50.3732 112.832 50.8899 114.134C51.4029 115.436 51.6612 116.874 51.6612 118.446C51.6612 120.018 51.4029 121.457 50.8899 122.759C50.3769 124.061 49.6793 125.178 48.7973 126.117C47.9189 127.053 46.8966 127.778 45.7341 128.292C44.5715 128.806 43.3536 129.065 42.0803 129.065C40.6189 129.065 39.4083 128.788 38.4488 128.233C37.4892 127.678 36.7769 127.005 36.3156 126.217V137.202H30.2261V108.479H35.9096V110.676ZM40.7407 113.523C40.0911 113.523 39.4748 113.638 38.8953 113.867C38.3122 114.097 37.7992 114.43 37.3527 114.866C36.9061 115.299 36.5555 115.817 36.2971 116.412C36.0388 117.008 35.9133 117.688 35.9133 118.446C35.9133 119.205 36.0425 119.893 36.2971 120.503C36.5555 121.113 36.9061 121.627 37.3527 122.049C37.7992 122.47 38.3122 122.796 38.8953 123.025C39.4785 123.255 40.0948 123.373 40.7407 123.373C41.3865 123.373 42.0065 123.258 42.586 123.025C43.1691 122.796 43.6821 122.47 44.1286 122.049C44.5752 121.627 44.9258 121.113 45.1842 120.503C45.4425 119.893 45.568 119.208 45.568 118.446C45.568 117.684 45.4388 117.008 45.1842 116.412C44.9258 115.817 44.5752 115.299 44.1286 114.866C43.6821 114.433 43.1691 114.1 42.586 113.867C42.0028 113.638 41.3865 113.523 40.7407 113.523Z" fill="#231F20"/>
<path d="M64.6521 107.828C66.1948 107.828 67.6231 108.09 68.9333 108.623C70.2471 109.152 71.3838 109.884 72.3434 110.82C73.3029 111.756 74.0485 112.876 74.5762 114.178C75.104 115.48 75.3697 116.904 75.3697 118.45C75.3697 119.996 75.1077 121.42 74.5762 122.722C74.0485 124.024 73.3029 125.141 72.3434 126.08C71.3838 127.016 70.2471 127.748 68.9333 128.277C67.6194 128.806 66.1948 129.069 64.6521 129.069C63.1095 129.069 61.6812 128.806 60.3673 128.277C59.0535 127.748 57.9168 127.016 56.9572 126.08C55.9976 125.145 55.2521 124.028 54.7244 122.722C54.1966 121.42 53.9346 119.996 53.9346 118.45C53.9346 116.904 54.1966 115.48 54.7244 114.178C55.2521 112.876 55.9976 111.759 56.9572 110.82C57.9168 109.884 59.0535 109.152 60.3673 108.623C61.6812 108.094 63.1095 107.828 64.6521 107.828ZM64.6521 123.369C65.2758 123.369 65.8627 123.255 66.4199 123.022C66.9735 122.792 67.4681 122.467 67.8999 122.045C68.3317 121.623 68.6712 121.109 68.9148 120.499C69.1584 119.889 69.2802 119.205 69.2802 118.443C69.2802 117.681 69.1584 117.004 68.9148 116.408C68.6712 115.813 68.3317 115.295 67.8999 114.862C67.4681 114.43 66.9735 114.097 66.4199 113.864C65.8663 113.634 65.2758 113.52 64.6521 113.52C64.0284 113.52 63.4416 113.634 62.8843 113.864C62.3307 114.093 61.8362 114.426 61.4044 114.862C60.9726 115.299 60.633 115.813 60.3895 116.408C60.1459 117.004 60.0241 117.684 60.0241 118.443C60.0241 119.201 60.1459 119.889 60.3895 120.499C60.633 121.109 60.9726 121.623 61.4044 122.045C61.8362 122.467 62.3307 122.792 62.8843 123.022C63.4379 123.251 64.0284 123.369 64.6521 123.369Z" fill="#231F20"/>
<path d="M82.6368 128.414V114.174H76.5879V108.479H94.7752V114.174H88.7263V128.414H82.6368Z" fill="#231F20"/>
<path d="M106.711 107.828C108.253 107.828 109.682 108.09 110.992 108.623C112.306 109.152 113.442 109.884 114.402 110.82C115.362 111.756 116.107 112.876 116.635 114.178C117.163 115.48 117.428 116.904 117.428 118.45C117.428 119.996 117.166 121.42 116.635 122.722C116.107 124.024 115.362 125.141 114.402 126.08C113.442 127.016 112.306 127.748 110.992 128.277C109.678 128.806 108.253 129.069 106.711 129.069C105.168 129.069 103.74 128.806 102.426 128.277C101.112 127.748 99.9753 127.016 99.0158 126.08C98.0562 125.145 97.3107 124.028 96.783 122.722C96.2552 121.42 95.9932 119.996 95.9932 118.45C95.9932 116.904 96.2552 115.48 96.783 114.178C97.3107 112.876 98.0562 111.759 99.0158 110.82C99.9753 109.884 101.112 109.152 102.426 108.623C103.74 108.094 105.168 107.828 106.711 107.828ZM106.711 123.369C107.334 123.369 107.921 123.255 108.479 123.022C109.032 122.792 109.527 122.467 109.958 122.045C110.39 121.623 110.73 121.109 110.973 120.499C111.217 119.889 111.339 119.205 111.339 118.443C111.339 117.681 111.217 117.004 110.973 116.408C110.73 115.813 110.39 115.295 109.958 114.862C109.527 114.43 109.032 114.097 108.479 113.864C107.925 113.634 107.334 113.52 106.711 113.52C106.087 113.52 105.5 113.634 104.943 113.864C104.389 114.093 103.895 114.426 103.463 114.862C103.031 115.299 102.692 115.813 102.448 116.408C102.204 117.004 102.083 117.684 102.083 118.443C102.083 119.201 102.204 119.889 102.448 120.499C102.692 121.109 103.031 121.623 103.463 122.045C103.895 122.467 104.389 122.792 104.943 123.022C105.497 123.251 106.087 123.369 106.711 123.369Z" fill="#231F20"/>
<path d="M133.91 128.414V121.05H126.522V128.414H120.432V108.479H126.522V115.354H133.91V108.479H140V128.414H133.91Z" fill="#231F20"/>
<path d="M90.007 2.80176H42.0068L26.9712 83.228L54.0788 77.8058L61.9878 34.9759C62.2831 33.4003 61.3493 31.858 59.8214 31.3883L53.1709 29.3504C52.0969 28.6994 52.5583 27.0424 53.8131 27.0424H80.7066C83.9802 27.0424 86.4529 30.0235 85.8477 33.2487L78.6842 72.883L105.652 67.4867L112.616 30.1678C115.306 15.9577 104.437 2.80176 90.007 2.80176Z" fill="url(#paint0_linear_59_1605)"/>
<defs>
<linearGradient id="paint0_linear_59_1605" x1="26.9712" y1="43.013" x2="113.029" y2="43.013" gradientUnits="userSpaceOnUse">
<stop stop-color="#2E3192"/>
<stop offset="1" stop-color="#00AEEF"/>
</linearGradient>
</defs>
</svg>
